<svg xmlns="http://www.w3.org/2000/svg" width="800" height="300" viewBox="0 0 800 300">
<style>
  .lbl { font: 11px sans-serif; fill: #8b949e; }
  .ttl { font: bold 13px sans-serif; fill: #e6edf3; }
  .grid { stroke: #21262d; stroke-width: 1; }
  .axis { stroke: #30363d; stroke-width: 1; fill: none; }
  .lv  { fill: none; stroke: #58a6ff;   stroke-width: 2; stroke-linejoin: round; stroke-linecap: round; }
  .lu  { fill: none; stroke: #3fb950; stroke-width: 2; stroke-linejoin: round; stroke-linecap: round; stroke-dasharray: 4 2; }
</style>
<rect width="800" height="300" rx="8" ry="8" fill="#161b22" stroke="#30363d" stroke-width="1"/>

<text x="400" y="26" text-anchor="middle" class="ttl">Total Daily Traffic (all repos)</text>
<line x1="55" y1="250" x2="770" y2="250" class="grid"/>
<text x="47" y="254" text-anchor="end" class="lbl">0</text>
<line x1="55" y1="198.5" x2="770" y2="198.5" class="grid"/>
<text x="47" y="202.5" text-anchor="end" class="lbl">29</text>
<line x1="55" y1="147" x2="770" y2="147" class="grid"/>
<text x="47" y="151" text-anchor="end" class="lbl">58</text>
<line x1="55" y1="95.5" x2="770" y2="95.5" class="grid"/>
<text x="47" y="99.5" text-anchor="end" class="lbl">86</text>
<line x1="55" y1="44" x2="770" y2="44" class="grid"/>
<text x="47" y="48" text-anchor="end" class="lbl">115</text>
<line x1="55" y1="44" x2="55" y2="250" class="axis"/>
<line x1="55" y1="250" x2="770" y2="250" class="axis"/>
<polyline points="55,250 80.53571428571428,250 106.07142857142857,250 131.60714285714283,250 157.14285714285714,250 182.67857142857144,250 208.2142857142857,250 233.75,250 259.2857142857143,250 284.82142857142856,250 310.3571428571429,250 335.8928571428571,121.02608695652174 361.4285714285714,250 386.9642857142857,239.25217391304346 412.5,239.25217391304346 438.0357142857143,224.9217391304348 463.57142857142856,214.17391304347825 489.10714285714283,121.02608695652174 514.6428571428571,44 540.1785714285714,106.69565217391306 565.7142857142858,242.83478260869566 591.25,214.17391304347825 616.7857142857142,203.42608695652174 642.3214285714286,160.43478260869566 667.8571428571428,210.59130434782608 693.3928571428572,106.69565217391306 718.9285714285714,124.6086956521739 744.4642857142858,250 770,250"   class="lv"/>
<polyline points="55,250 80.53571428571428,250 106.07142857142857,250 131.60714285714283,250 157.14285714285714,250 182.67857142857144,250 208.2142857142857,250 233.75,250 259.2857142857143,250 284.82142857142856,250 310.3571428571429,250 335.8928571428571,121.02608695652174 361.4285714285714,250 386.9642857142857,239.25217391304346 412.5,239.25217391304346 438.0357142857143,224.9217391304348 463.57142857142856,239.25217391304346 489.10714285714283,185.51304347826087 514.6428571428571,208.8 540.1785714285714,214.17391304347825 565.7142857142858,242.83478260869566 591.25,221.33913043478262 616.7857142857142,203.42608695652174 642.3214285714286,217.75652173913045 667.8571428571428,232.08695652173913 693.3928571428572,207.0086956521739 718.9285714285714,221.33913043478262 744.4642857142858,250 770,250" class="lu"/>

<circle cx="55" cy="250"   r="3" fill="#58a6ff"/>
<circle cx="55" cy="250" r="3" fill="#3fb950"/>
<circle cx="80.53571428571428" cy="250"   r="3" fill="#58a6ff"/>
<circle cx="80.53571428571428" cy="250" r="3" fill="#3fb950"/>
<circle cx="106.07142857142857" cy="250"   r="3" fill="#58a6ff"/>
<circle cx="106.07142857142857" cy="250" r="3" fill="#3fb950"/>
<circle cx="131.60714285714283" cy="250"   r="3" fill="#58a6ff"/>
<circle cx="131.60714285714283" cy="250" r="3" fill="#3fb950"/>
<circle cx="157.14285714285714" cy="250"   r="3" fill="#58a6ff"/>
<circle cx="157.14285714285714" cy="250" r="3" fill="#3fb950"/>
<circle cx="182.67857142857144" cy="250"   r="3" fill="#58a6ff"/>
<circle cx="182.67857142857144" cy="250" r="3" fill="#3fb950"/>
<circle cx="208.2142857142857" cy="250"   r="3" fill="#58a6ff"/>
<circle cx="208.2142857142857" cy="250" r="3" fill="#3fb950"/>
<circle cx="233.75" cy="250"   r="3" fill="#58a6ff"/>
<circle cx="233.75" cy="250" r="3" fill="#3fb950"/>
<circle cx="259.2857142857143" cy="250"   r="3" fill="#58a6ff"/>
<circle cx="259.2857142857143" cy="250" r="3" fill="#3fb950"/>
<circle cx="284.82142857142856" cy="250"   r="3" fill="#58a6ff"/>
<circle cx="284.82142857142856" cy="250" r="3" fill="#3fb950"/>
<circle cx="310.3571428571429" cy="250"   r="3" fill="#58a6ff"/>
<circle cx="310.3571428571429" cy="250" r="3" fill="#3fb950"/>
<circle cx="335.8928571428571" cy="121.02608695652174"   r="3" fill="#58a6ff"/>
<circle cx="335.8928571428571" cy="121.02608695652174" r="3" fill="#3fb950"/>
<circle cx="361.4285714285714" cy="250"   r="3" fill="#58a6ff"/>
<circle cx="361.4285714285714" cy="250" r="3" fill="#3fb950"/>
<circle cx="386.9642857142857" cy="239.25217391304346"   r="3" fill="#58a6ff"/>
<circle cx="386.9642857142857" cy="239.25217391304346" r="3" fill="#3fb950"/>
<circle cx="412.5" cy="239.25217391304346"   r="3" fill="#58a6ff"/>
<circle cx="412.5" cy="239.25217391304346" r="3" fill="#3fb950"/>
<circle cx="438.0357142857143" cy="224.9217391304348"   r="3" fill="#58a6ff"/>
<circle cx="438.0357142857143" cy="224.9217391304348" r="3" fill="#3fb950"/>
<circle cx="463.57142857142856" cy="214.17391304347825"   r="3" fill="#58a6ff"/>
<circle cx="463.57142857142856" cy="239.25217391304346" r="3" fill="#3fb950"/>
<circle cx="489.10714285714283" cy="121.02608695652174"   r="3" fill="#58a6ff"/>
<circle cx="489.10714285714283" cy="185.51304347826087" r="3" fill="#3fb950"/>
<circle cx="514.6428571428571" cy="44"   r="3" fill="#58a6ff"/>
<circle cx="514.6428571428571" cy="208.8" r="3" fill="#3fb950"/>
<circle cx="540.1785714285714" cy="106.69565217391306"   r="3" fill="#58a6ff"/>
<circle cx="540.1785714285714" cy="214.17391304347825" r="3" fill="#3fb950"/>
<circle cx="565.7142857142858" cy="242.83478260869566"   r="3" fill="#58a6ff"/>
<circle cx="565.7142857142858" cy="242.83478260869566" r="3" fill="#3fb950"/>
<circle cx="591.25" cy="214.17391304347825"   r="3" fill="#58a6ff"/>
<circle cx="591.25" cy="221.33913043478262" r="3" fill="#3fb950"/>
<circle cx="616.7857142857142" cy="203.42608695652174"   r="3" fill="#58a6ff"/>
<circle cx="616.7857142857142" cy="203.42608695652174" r="3" fill="#3fb950"/>
<circle cx="642.3214285714286" cy="160.43478260869566"   r="3" fill="#58a6ff"/>
<circle cx="642.3214285714286" cy="217.75652173913045" r="3" fill="#3fb950"/>
<circle cx="667.8571428571428" cy="210.59130434782608"   r="3" fill="#58a6ff"/>
<circle cx="667.8571428571428" cy="232.08695652173913" r="3" fill="#3fb950"/>
<circle cx="693.3928571428572" cy="106.69565217391306"   r="3" fill="#58a6ff"/>
<circle cx="693.3928571428572" cy="207.0086956521739" r="3" fill="#3fb950"/>
<circle cx="718.9285714285714" cy="124.6086956521739"   r="3" fill="#58a6ff"/>
<circle cx="718.9285714285714" cy="221.33913043478262" r="3" fill="#3fb950"/>
<circle cx="744.4642857142858" cy="250"   r="3" fill="#58a6ff"/>
<circle cx="744.4642857142858" cy="250" r="3" fill="#3fb950"/>
<circle cx="770" cy="250"   r="3" fill="#58a6ff"/>
<circle cx="770" cy="250" r="3" fill="#3fb950"/>
<text x="55" y="268" text-anchor="middle" class="lbl">03-29</text><text x="106.07142857142857" y="268" text-anchor="middle" class="lbl">03-31</text><text x="157.14285714285714" y="268" text-anchor="middle" class="lbl">04-02</text><text x="208.2142857142857" y="268" text-anchor="middle" class="lbl">04-04</text><text x="259.2857142857143" y="268" text-anchor="middle" class="lbl">04-06</text><text x="310.3571428571429" y="268" text-anchor="middle" class="lbl">04-08</text><text x="361.4285714285714" y="268" text-anchor="middle" class="lbl">04-10</text><text x="412.5" y="268" text-anchor="middle" class="lbl">04-12</text><text x="463.57142857142856" y="268" text-anchor="middle" class="lbl">04-14</text><text x="514.6428571428571" y="268" text-anchor="middle" class="lbl">04-16</text><text x="565.7142857142858" y="268" text-anchor="middle" class="lbl">04-18</text><text x="616.7857142857142" y="268" text-anchor="middle" class="lbl">04-20</text><text x="667.8571428571428" y="268" text-anchor="middle" class="lbl">04-22</text><text x="718.9285714285714" y="268" text-anchor="middle" class="lbl">04-24</text><text x="770" y="268" text-anchor="middle" class="lbl">04-26</text>
<line x1="55" y1="288" x2="71" y2="288" class="lv"/>
<text x="75" y="292" class="lbl">Views</text>
<line x1="127" y1="288" x2="143" y2="288" class="lu"/>
<text x="147" y="292" class="lbl">Unique visitors</text>
</svg>