<svg xmlns="http://www.w3.org/2000/svg" width="800" height="300" viewBox="0 0 800 300">
<style>
  .lbl { font: 11px sans-serif; fill: #8b949e; }
  .ttl { font: bold 13px sans-serif; fill: #e6edf3; }
  .grid { stroke: #21262d; stroke-width: 1; }
  .axis { stroke: #30363d; stroke-width: 1; fill: none; }
  .lv  { fill: none; stroke: #58a6ff;   stroke-width: 2; stroke-linejoin: round; stroke-linecap: round; }
  .lu  { fill: none; stroke: #3fb950; stroke-width: 2; stroke-linejoin: round; stroke-linecap: round; stroke-dasharray: 4 2; }
</style>
<rect width="800" height="300" rx="8" ry="8" fill="#161b22" stroke="#30363d" stroke-width="1"/>

<text x="400" y="26" text-anchor="middle" class="ttl">Total Daily Traffic (all repos)</text>
<line x1="55" y1="250" x2="770" y2="250" class="grid"/>
<text x="47" y="254" text-anchor="end" class="lbl">0</text>
<line x1="55" y1="198.5" x2="770" y2="198.5" class="grid"/>
<text x="47" y="202.5" text-anchor="end" class="lbl">120</text>
<line x1="55" y1="147" x2="770" y2="147" class="grid"/>
<text x="47" y="151" text-anchor="end" class="lbl">240</text>
<line x1="55" y1="95.5" x2="770" y2="95.5" class="grid"/>
<text x="47" y="99.5" text-anchor="end" class="lbl">360</text>
<line x1="55" y1="44" x2="770" y2="44" class="grid"/>
<text x="47" y="48" text-anchor="end" class="lbl">480</text>
<line x1="55" y1="44" x2="55" y2="250" class="axis"/>
<line x1="55" y1="250" x2="770" y2="250" class="axis"/>
<polyline points="55,250 76.02941176470588,250 97.05882352941177,250 118.08823529411765,250 139.11764705882354,250 160.14705882352942,250 181.1764705882353,250 202.20588235294116,250 223.23529411764704,250 244.26470588235296,250 265.29411764705884,250 286.32352941176475,219.1 307.3529411764706,250 328.38235294117646,247.425 349.4117647058823,247.425 370.44117647058823,240.9875 391.4705882352941,228.54166666666666 412.5,172.75 433.5294117647059,102.79583333333332 454.55882352941177,129.83333333333331 475.5882352941177,243.13333333333333 496.61764705882354,215.66666666666669 517.6470588235295,205.36666666666667 538.6764705882354,164.16666666666666 559.7058823529412,212.23333333333335 580.7352941176471,112.66666666666669 601.7647058823529,129.83333333333331 622.7941176470588,44 643.8235294117646,188.2 664.8529411764706,216.525 685.8823529411765,247.425 706.9117647058823,228.1125 727.9411764705882,244.85 748.9705882352941,247.425 770,250"   class="lv"/>
<polyline points="55,250 76.02941176470588,250 97.05882352941177,250 118.08823529411765,250 139.11764705882354,250 160.14705882352942,250 181.1764705882353,250 202.20588235294116,250 223.23529411764704,250 244.26470588235296,250 265.29411764705884,250 286.32352941176475,219.1 307.3529411764706,250 328.38235294117646,247.425 349.4117647058823,247.425 370.44117647058823,240.9875 391.4705882352941,243.5625 412.5,211.375 433.5294117647059,221.24583333333334 454.55882352941177,219.95833333333334 475.5882352941177,243.13333333333333 496.61764705882354,222.53333333333333 517.6470588235295,205.36666666666667 538.6764705882354,219.1 559.7058823529412,232.83333333333334 580.7352941176471,208.8 601.7647058823529,222.53333333333333 622.7941176470588,226.825 643.8235294117646,226.825 664.8529411764706,239.7 685.8823529411765,247.425 706.9117647058823,239.7 727.9411764705882,244.85 748.9705882352941,247.425 770,250" class="lu"/>

<circle cx="55" cy="250"   r="3" fill="#58a6ff"/>
<circle cx="55" cy="250" r="3" fill="#3fb950"/>
<circle cx="76.02941176470588" cy="250"   r="3" fill="#58a6ff"/>
<circle cx="76.02941176470588" cy="250" r="3" fill="#3fb950"/>
<circle cx="97.05882352941177" cy="250"   r="3" fill="#58a6ff"/>
<circle cx="97.05882352941177" cy="250" r="3" fill="#3fb950"/>
<circle cx="118.08823529411765" cy="250"   r="3" fill="#58a6ff"/>
<circle cx="118.08823529411765" cy="250" r="3" fill="#3fb950"/>
<circle cx="139.11764705882354" cy="250"   r="3" fill="#58a6ff"/>
<circle cx="139.11764705882354" cy="250" r="3" fill="#3fb950"/>
<circle cx="160.14705882352942" cy="250"   r="3" fill="#58a6ff"/>
<circle cx="160.14705882352942" cy="250" r="3" fill="#3fb950"/>
<circle cx="181.1764705882353" cy="250"   r="3" fill="#58a6ff"/>
<circle cx="181.1764705882353" cy="250" r="3" fill="#3fb950"/>
<circle cx="202.20588235294116" cy="250"   r="3" fill="#58a6ff"/>
<circle cx="202.20588235294116" cy="250" r="3" fill="#3fb950"/>
<circle cx="223.23529411764704" cy="250"   r="3" fill="#58a6ff"/>
<circle cx="223.23529411764704" cy="250" r="3" fill="#3fb950"/>
<circle cx="244.26470588235296" cy="250"   r="3" fill="#58a6ff"/>
<circle cx="244.26470588235296" cy="250" r="3" fill="#3fb950"/>
<circle cx="265.29411764705884" cy="250"   r="3" fill="#58a6ff"/>
<circle cx="265.29411764705884" cy="250" r="3" fill="#3fb950"/>
<circle cx="286.32352941176475" cy="219.1"   r="3" fill="#58a6ff"/>
<circle cx="286.32352941176475" cy="219.1" r="3" fill="#3fb950"/>
<circle cx="307.3529411764706" cy="250"   r="3" fill="#58a6ff"/>
<circle cx="307.3529411764706" cy="250" r="3" fill="#3fb950"/>
<circle cx="328.38235294117646" cy="247.425"   r="3" fill="#58a6ff"/>
<circle cx="328.38235294117646" cy="247.425" r="3" fill="#3fb950"/>
<circle cx="349.4117647058823" cy="247.425"   r="3" fill="#58a6ff"/>
<circle cx="349.4117647058823" cy="247.425" r="3" fill="#3fb950"/>
<circle cx="370.44117647058823" cy="240.9875"   r="3" fill="#58a6ff"/>
<circle cx="370.44117647058823" cy="240.9875" r="3" fill="#3fb950"/>
<circle cx="391.4705882352941" cy="228.54166666666666"   r="3" fill="#58a6ff"/>
<circle cx="391.4705882352941" cy="243.5625" r="3" fill="#3fb950"/>
<circle cx="412.5" cy="172.75"   r="3" fill="#58a6ff"/>
<circle cx="412.5" cy="211.375" r="3" fill="#3fb950"/>
<circle cx="433.5294117647059" cy="102.79583333333332"   r="3" fill="#58a6ff"/>
<circle cx="433.5294117647059" cy="221.24583333333334" r="3" fill="#3fb950"/>
<circle cx="454.55882352941177" cy="129.83333333333331"   r="3" fill="#58a6ff"/>
<circle cx="454.55882352941177" cy="219.95833333333334" r="3" fill="#3fb950"/>
<circle cx="475.5882352941177" cy="243.13333333333333"   r="3" fill="#58a6ff"/>
<circle cx="475.5882352941177" cy="243.13333333333333" r="3" fill="#3fb950"/>
<circle cx="496.61764705882354" cy="215.66666666666669"   r="3" fill="#58a6ff"/>
<circle cx="496.61764705882354" cy="222.53333333333333" r="3" fill="#3fb950"/>
<circle cx="517.6470588235295" cy="205.36666666666667"   r="3" fill="#58a6ff"/>
<circle cx="517.6470588235295" cy="205.36666666666667" r="3" fill="#3fb950"/>
<circle cx="538.6764705882354" cy="164.16666666666666"   r="3" fill="#58a6ff"/>
<circle cx="538.6764705882354" cy="219.1" r="3" fill="#3fb950"/>
<circle cx="559.7058823529412" cy="212.23333333333335"   r="3" fill="#58a6ff"/>
<circle cx="559.7058823529412" cy="232.83333333333334" r="3" fill="#3fb950"/>
<circle cx="580.7352941176471" cy="112.66666666666669"   r="3" fill="#58a6ff"/>
<circle cx="580.7352941176471" cy="208.8" r="3" fill="#3fb950"/>
<circle cx="601.7647058823529" cy="129.83333333333331"   r="3" fill="#58a6ff"/>
<circle cx="601.7647058823529" cy="222.53333333333333" r="3" fill="#3fb950"/>
<circle cx="622.7941176470588" cy="44"   r="3" fill="#58a6ff"/>
<circle cx="622.7941176470588" cy="226.825" r="3" fill="#3fb950"/>
<circle cx="643.8235294117646" cy="188.2"   r="3" fill="#58a6ff"/>
<circle cx="643.8235294117646" cy="226.825" r="3" fill="#3fb950"/>
<circle cx="664.8529411764706" cy="216.525"   r="3" fill="#58a6ff"/>
<circle cx="664.8529411764706" cy="239.7" r="3" fill="#3fb950"/>
<circle cx="685.8823529411765" cy="247.425"   r="3" fill="#58a6ff"/>
<circle cx="685.8823529411765" cy="247.425" r="3" fill="#3fb950"/>
<circle cx="706.9117647058823" cy="228.1125"   r="3" fill="#58a6ff"/>
<circle cx="706.9117647058823" cy="239.7" r="3" fill="#3fb950"/>
<circle cx="727.9411764705882" cy="244.85"   r="3" fill="#58a6ff"/>
<circle cx="727.9411764705882" cy="244.85" r="3" fill="#3fb950"/>
<circle cx="748.9705882352941" cy="247.425"   r="3" fill="#58a6ff"/>
<circle cx="748.9705882352941" cy="247.425" r="3" fill="#3fb950"/>
<circle cx="770" cy="250"   r="3" fill="#58a6ff"/>
<circle cx="770" cy="250" r="3" fill="#3fb950"/>
<text x="55" y="268" text-anchor="middle" class="lbl">03-29</text><text x="97.05882352941177" y="268" text-anchor="middle" class="lbl">03-31</text><text x="139.11764705882354" y="268" text-anchor="middle" class="lbl">04-02</text><text x="181.1764705882353" y="268" text-anchor="middle" class="lbl">04-04</text><text x="223.23529411764704" y="268" text-anchor="middle" class="lbl">04-06</text><text x="265.29411764705884" y="268" text-anchor="middle" class="lbl">04-08</text><text x="307.3529411764706" y="268" text-anchor="middle" class="lbl">04-10</text><text x="349.4117647058823" y="268" text-anchor="middle" class="lbl">04-12</text><text x="391.4705882352941" y="268" text-anchor="middle" class="lbl">04-14</text><text x="433.5294117647059" y="268" text-anchor="middle" class="lbl">04-16</text><text x="475.5882352941177" y="268" text-anchor="middle" class="lbl">04-18</text><text x="517.6470588235295" y="268" text-anchor="middle" class="lbl">04-20</text><text x="559.7058823529412" y="268" text-anchor="middle" class="lbl">04-22</text><text x="601.7647058823529" y="268" text-anchor="middle" class="lbl">04-24</text><text x="643.8235294117646" y="268" text-anchor="middle" class="lbl">04-26</text><text x="685.8823529411765" y="268" text-anchor="middle" class="lbl">04-28</text><text x="727.9411764705882" y="268" text-anchor="middle" class="lbl">04-30</text><text x="770" y="268" text-anchor="middle" class="lbl">05-02</text>
<line x1="55" y1="288" x2="71" y2="288" class="lv"/>
<text x="75" y="292" class="lbl">Views</text>
<line x1="127" y1="288" x2="143" y2="288" class="lu"/>
<text x="147" y="292" class="lbl">Unique visitors</text>
</svg>