<svg xmlns="http://www.w3.org/2000/svg" width="800" height="300" viewBox="0 0 800 300">
<style>
  .lbl { font: 11px sans-serif; fill: #8b949e; }
  .ttl { font: bold 13px sans-serif; fill: #e6edf3; }
  .grid { stroke: #21262d; stroke-width: 1; }
  .axis { stroke: #30363d; stroke-width: 1; fill: none; }
  .lv  { fill: none; stroke: #58a6ff;   stroke-width: 2; stroke-linejoin: round; stroke-linecap: round; }
  .lu  { fill: none; stroke: #3fb950; stroke-width: 2; stroke-linejoin: round; stroke-linecap: round; stroke-dasharray: 4 2; }
</style>
<rect width="800" height="300" rx="8" ry="8" fill="#161b22" stroke="#30363d" stroke-width="1"/>

<text x="400" y="26" text-anchor="middle" class="ttl">Total Daily Traffic (all repos)</text>
<line x1="55" y1="250" x2="770" y2="250" class="grid"/>
<text x="47" y="254" text-anchor="end" class="lbl">0</text>
<line x1="55" y1="198.5" x2="770" y2="198.5" class="grid"/>
<text x="47" y="202.5" text-anchor="end" class="lbl">72</text>
<line x1="55" y1="147" x2="770" y2="147" class="grid"/>
<text x="47" y="151" text-anchor="end" class="lbl">143</text>
<line x1="55" y1="95.5" x2="770" y2="95.5" class="grid"/>
<text x="47" y="99.5" text-anchor="end" class="lbl">215</text>
<line x1="55" y1="44" x2="770" y2="44" class="grid"/>
<text x="47" y="48" text-anchor="end" class="lbl">286</text>
<line x1="55" y1="44" x2="55" y2="250" class="axis"/>
<line x1="55" y1="250" x2="770" y2="250" class="axis"/>
<polyline points="55,250 78.06451612903226,250 101.12903225806451,250 124.19354838709677,250 147.25806451612902,250 170.32258064516128,250 193.38709677419354,250 216.4516129032258,250 239.51612903225805,250 262.58064516129036,250 285.64516129032256,250 308.7096774193549,198.13986013986013 331.7741935483871,250 354.8387096774194,245.67832167832168 377.9032258064516,245.67832167832168 400.9677419354839,234.87412587412587 424.0322580645161,213.98601398601397 447.09677419354836,120.34965034965035 470.16129032258067,44 493.2258064516129,105.94405594405595 516.2903225806451,242.7972027972028 539.3548387096773,213.98601398601397 562.4193548387098,203.1818181818182 585.483870967742,159.96503496503496 608.5483870967741,210.3846153846154 631.6129032258065,105.94405594405595 654.6774193548388,123.95104895104896 677.741935483871,77.13286713286712 700.8064516129032,198.13986013986013 723.8709677419355,224.06993006993008 746.9354838709678,250 770,250"   class="lv"/>
<polyline points="55,250 78.06451612903226,250 101.12903225806451,250 124.19354838709677,250 147.25806451612902,250 170.32258064516128,250 193.38709677419354,250 216.4516129032258,250 239.51612903225805,250 262.58064516129036,250 285.64516129032256,250 308.7096774193549,198.13986013986013 331.7741935483871,250 354.8387096774194,245.67832167832168 377.9032258064516,245.67832167832168 400.9677419354839,234.87412587412587 424.0322580645161,239.1958041958042 447.09677419354836,185.17482517482517 470.16129032258067,209.66433566433568 493.2258064516129,213.98601398601397 516.2903225806451,242.7972027972028 539.3548387096773,221.1888111888112 562.4193548387098,203.1818181818182 585.483870967742,217.5874125874126 608.5483870967741,231.993006993007 631.6129032258065,206.78321678321677 654.6774193548388,221.1888111888112 677.741935483871,230.55244755244755 700.8064516129032,230.55244755244755 723.8709677419355,241.35664335664336 746.9354838709678,250 770,250" class="lu"/>

<circle cx="55" cy="250"   r="3" fill="#58a6ff"/>
<circle cx="55" cy="250" r="3" fill="#3fb950"/>
<circle cx="78.06451612903226" cy="250"   r="3" fill="#58a6ff"/>
<circle cx="78.06451612903226" cy="250" r="3" fill="#3fb950"/>
<circle cx="101.12903225806451" cy="250"   r="3" fill="#58a6ff"/>
<circle cx="101.12903225806451" cy="250" r="3" fill="#3fb950"/>
<circle cx="124.19354838709677" cy="250"   r="3" fill="#58a6ff"/>
<circle cx="124.19354838709677" cy="250" r="3" fill="#3fb950"/>
<circle cx="147.25806451612902" cy="250"   r="3" fill="#58a6ff"/>
<circle cx="147.25806451612902" cy="250" r="3" fill="#3fb950"/>
<circle cx="170.32258064516128" cy="250"   r="3" fill="#58a6ff"/>
<circle cx="170.32258064516128" cy="250" r="3" fill="#3fb950"/>
<circle cx="193.38709677419354" cy="250"   r="3" fill="#58a6ff"/>
<circle cx="193.38709677419354" cy="250" r="3" fill="#3fb950"/>
<circle cx="216.4516129032258" cy="250"   r="3" fill="#58a6ff"/>
<circle cx="216.4516129032258" cy="250" r="3" fill="#3fb950"/>
<circle cx="239.51612903225805" cy="250"   r="3" fill="#58a6ff"/>
<circle cx="239.51612903225805" cy="250" r="3" fill="#3fb950"/>
<circle cx="262.58064516129036" cy="250"   r="3" fill="#58a6ff"/>
<circle cx="262.58064516129036" cy="250" r="3" fill="#3fb950"/>
<circle cx="285.64516129032256" cy="250"   r="3" fill="#58a6ff"/>
<circle cx="285.64516129032256" cy="250" r="3" fill="#3fb950"/>
<circle cx="308.7096774193549" cy="198.13986013986013"   r="3" fill="#58a6ff"/>
<circle cx="308.7096774193549" cy="198.13986013986013" r="3" fill="#3fb950"/>
<circle cx="331.7741935483871" cy="250"   r="3" fill="#58a6ff"/>
<circle cx="331.7741935483871" cy="250" r="3" fill="#3fb950"/>
<circle cx="354.8387096774194" cy="245.67832167832168"   r="3" fill="#58a6ff"/>
<circle cx="354.8387096774194" cy="245.67832167832168" r="3" fill="#3fb950"/>
<circle cx="377.9032258064516" cy="245.67832167832168"   r="3" fill="#58a6ff"/>
<circle cx="377.9032258064516" cy="245.67832167832168" r="3" fill="#3fb950"/>
<circle cx="400.9677419354839" cy="234.87412587412587"   r="3" fill="#58a6ff"/>
<circle cx="400.9677419354839" cy="234.87412587412587" r="3" fill="#3fb950"/>
<circle cx="424.0322580645161" cy="213.98601398601397"   r="3" fill="#58a6ff"/>
<circle cx="424.0322580645161" cy="239.1958041958042" r="3" fill="#3fb950"/>
<circle cx="447.09677419354836" cy="120.34965034965035"   r="3" fill="#58a6ff"/>
<circle cx="447.09677419354836" cy="185.17482517482517" r="3" fill="#3fb950"/>
<circle cx="470.16129032258067" cy="44"   r="3" fill="#58a6ff"/>
<circle cx="470.16129032258067" cy="209.66433566433568" r="3" fill="#3fb950"/>
<circle cx="493.2258064516129" cy="105.94405594405595"   r="3" fill="#58a6ff"/>
<circle cx="493.2258064516129" cy="213.98601398601397" r="3" fill="#3fb950"/>
<circle cx="516.2903225806451" cy="242.7972027972028"   r="3" fill="#58a6ff"/>
<circle cx="516.2903225806451" cy="242.7972027972028" r="3" fill="#3fb950"/>
<circle cx="539.3548387096773" cy="213.98601398601397"   r="3" fill="#58a6ff"/>
<circle cx="539.3548387096773" cy="221.1888111888112" r="3" fill="#3fb950"/>
<circle cx="562.4193548387098" cy="203.1818181818182"   r="3" fill="#58a6ff"/>
<circle cx="562.4193548387098" cy="203.1818181818182" r="3" fill="#3fb950"/>
<circle cx="585.483870967742" cy="159.96503496503496"   r="3" fill="#58a6ff"/>
<circle cx="585.483870967742" cy="217.5874125874126" r="3" fill="#3fb950"/>
<circle cx="608.5483870967741" cy="210.3846153846154"   r="3" fill="#58a6ff"/>
<circle cx="608.5483870967741" cy="231.993006993007" r="3" fill="#3fb950"/>
<circle cx="631.6129032258065" cy="105.94405594405595"   r="3" fill="#58a6ff"/>
<circle cx="631.6129032258065" cy="206.78321678321677" r="3" fill="#3fb950"/>
<circle cx="654.6774193548388" cy="123.95104895104896"   r="3" fill="#58a6ff"/>
<circle cx="654.6774193548388" cy="221.1888111888112" r="3" fill="#3fb950"/>
<circle cx="677.741935483871" cy="77.13286713286712"   r="3" fill="#58a6ff"/>
<circle cx="677.741935483871" cy="230.55244755244755" r="3" fill="#3fb950"/>
<circle cx="700.8064516129032" cy="198.13986013986013"   r="3" fill="#58a6ff"/>
<circle cx="700.8064516129032" cy="230.55244755244755" r="3" fill="#3fb950"/>
<circle cx="723.8709677419355" cy="224.06993006993008"   r="3" fill="#58a6ff"/>
<circle cx="723.8709677419355" cy="241.35664335664336" r="3" fill="#3fb950"/>
<circle cx="746.9354838709678" cy="250"   r="3" fill="#58a6ff"/>
<circle cx="746.9354838709678" cy="250" r="3" fill="#3fb950"/>
<circle cx="770" cy="250"   r="3" fill="#58a6ff"/>
<circle cx="770" cy="250" r="3" fill="#3fb950"/>
<text x="55" y="268" text-anchor="middle" class="lbl">03-29</text><text x="101.12903225806451" y="268" text-anchor="middle" class="lbl">03-31</text><text x="147.25806451612902" y="268" text-anchor="middle" class="lbl">04-02</text><text x="193.38709677419354" y="268" text-anchor="middle" class="lbl">04-04</text><text x="239.51612903225805" y="268" text-anchor="middle" class="lbl">04-06</text><text x="285.64516129032256" y="268" text-anchor="middle" class="lbl">04-08</text><text x="331.7741935483871" y="268" text-anchor="middle" class="lbl">04-10</text><text x="377.9032258064516" y="268" text-anchor="middle" class="lbl">04-12</text><text x="424.0322580645161" y="268" text-anchor="middle" class="lbl">04-14</text><text x="470.16129032258067" y="268" text-anchor="middle" class="lbl">04-16</text><text x="516.2903225806451" y="268" text-anchor="middle" class="lbl">04-18</text><text x="562.4193548387098" y="268" text-anchor="middle" class="lbl">04-20</text><text x="608.5483870967741" y="268" text-anchor="middle" class="lbl">04-22</text><text x="654.6774193548388" y="268" text-anchor="middle" class="lbl">04-24</text><text x="700.8064516129032" y="268" text-anchor="middle" class="lbl">04-26</text><text x="746.9354838709678" y="268" text-anchor="middle" class="lbl">04-28</text>
<line x1="55" y1="288" x2="71" y2="288" class="lv"/>
<text x="75" y="292" class="lbl">Views</text>
<line x1="127" y1="288" x2="143" y2="288" class="lu"/>
<text x="147" y="292" class="lbl">Unique visitors</text>
</svg>