<svg xmlns="http://www.w3.org/2000/svg" width="800" height="300" viewBox="0 0 800 300">
<style>
  .lbl { font: 11px sans-serif; fill: #8b949e; }
  .ttl { font: bold 13px sans-serif; fill: #e6edf3; }
  .grid { stroke: #21262d; stroke-width: 1; }
  .axis { stroke: #30363d; stroke-width: 1; fill: none; }
  .lv  { fill: none; stroke: #58a6ff;   stroke-width: 2; stroke-linejoin: round; stroke-linecap: round; }
  .lu  { fill: none; stroke: #3fb950; stroke-width: 2; stroke-linejoin: round; stroke-linecap: round; stroke-dasharray: 4 2; }
</style>
<rect width="800" height="300" rx="8" ry="8" fill="#161b22" stroke="#30363d" stroke-width="1"/>

<text x="400" y="26" text-anchor="middle" class="ttl">Total Daily Traffic (all repos)</text>
<line x1="55" y1="250" x2="770" y2="250" class="grid"/>
<text x="47" y="254" text-anchor="end" class="lbl">0</text>
<line x1="55" y1="198.5" x2="770" y2="198.5" class="grid"/>
<text x="47" y="202.5" text-anchor="end" class="lbl">57</text>
<line x1="55" y1="147" x2="770" y2="147" class="grid"/>
<text x="47" y="151" text-anchor="end" class="lbl">115</text>
<line x1="55" y1="95.5" x2="770" y2="95.5" class="grid"/>
<text x="47" y="99.5" text-anchor="end" class="lbl">172</text>
<line x1="55" y1="44" x2="770" y2="44" class="grid"/>
<text x="47" y="48" text-anchor="end" class="lbl">229</text>
<line x1="55" y1="44" x2="55" y2="250" class="axis"/>
<line x1="55" y1="250" x2="770" y2="250" class="axis"/>
<polyline points="55,250 78.83333333333333,250 102.66666666666666,250 126.5,250 150.33333333333331,250 174.16666666666666,250 198,250 221.83333333333334,250 245.66666666666666,250 269.5,250 293.3333333333333,250 317.16666666666663,185.23144104803492 341,250 364.83333333333337,244.60262008733625 388.6666666666667,244.60262008733625 412.5,231.10917030567686 436.3333333333333,214.0174672489083 460.16666666666663,120.46288209606988 484,44 507.8333333333333,106.06986899563319 531.6666666666666,242.80349344978166 555.5,214.0174672489083 579.3333333333333,203.2227074235808 603.1666666666667,160.04366812227073 627,210.41921397379912 650.8333333333334,106.06986899563319 674.6666666666667,124.06113537117905 698.5,106.06986899563319 722.3333333333334,206.82096069868996 746.1666666666666,233.80786026200875 770,250"   class="lv"/>
<polyline points="55,250 78.83333333333333,250 102.66666666666666,250 126.5,250 150.33333333333331,250 174.16666666666666,250 198,250 221.83333333333334,250 245.66666666666666,250 269.5,250 293.3333333333333,250 317.16666666666663,185.23144104803492 341,250 364.83333333333337,244.60262008733625 388.6666666666667,244.60262008733625 412.5,231.10917030567686 436.3333333333333,239.2052401746725 460.16666666666663,185.23144104803492 484,209.51965065502185 507.8333333333333,214.0174672489083 531.6666666666666,242.80349344978166 555.5,221.21397379912665 579.3333333333333,203.2227074235808 603.1666666666667,217.61572052401746 627,232.00873362445415 650.8333333333334,206.82096069868996 674.6666666666667,221.21397379912665 698.5,233.80786026200875 722.3333333333334,233.80786026200875 746.1666666666666,244.60262008733625 770,250" class="lu"/>

<circle cx="55" cy="250"   r="3" fill="#58a6ff"/>
<circle cx="55" cy="250" r="3" fill="#3fb950"/>
<circle cx="78.83333333333333" cy="250"   r="3" fill="#58a6ff"/>
<circle cx="78.83333333333333" cy="250" r="3" fill="#3fb950"/>
<circle cx="102.66666666666666" cy="250"   r="3" fill="#58a6ff"/>
<circle cx="102.66666666666666" cy="250" r="3" fill="#3fb950"/>
<circle cx="126.5" cy="250"   r="3" fill="#58a6ff"/>
<circle cx="126.5" cy="250" r="3" fill="#3fb950"/>
<circle cx="150.33333333333331" cy="250"   r="3" fill="#58a6ff"/>
<circle cx="150.33333333333331" cy="250" r="3" fill="#3fb950"/>
<circle cx="174.16666666666666" cy="250"   r="3" fill="#58a6ff"/>
<circle cx="174.16666666666666" cy="250" r="3" fill="#3fb950"/>
<circle cx="198" cy="250"   r="3" fill="#58a6ff"/>
<circle cx="198" cy="250" r="3" fill="#3fb950"/>
<circle cx="221.83333333333334" cy="250"   r="3" fill="#58a6ff"/>
<circle cx="221.83333333333334" cy="250" r="3" fill="#3fb950"/>
<circle cx="245.66666666666666" cy="250"   r="3" fill="#58a6ff"/>
<circle cx="245.66666666666666" cy="250" r="3" fill="#3fb950"/>
<circle cx="269.5" cy="250"   r="3" fill="#58a6ff"/>
<circle cx="269.5" cy="250" r="3" fill="#3fb950"/>
<circle cx="293.3333333333333" cy="250"   r="3" fill="#58a6ff"/>
<circle cx="293.3333333333333" cy="250" r="3" fill="#3fb950"/>
<circle cx="317.16666666666663" cy="185.23144104803492"   r="3" fill="#58a6ff"/>
<circle cx="317.16666666666663" cy="185.23144104803492" r="3" fill="#3fb950"/>
<circle cx="341" cy="250"   r="3" fill="#58a6ff"/>
<circle cx="341" cy="250" r="3" fill="#3fb950"/>
<circle cx="364.83333333333337" cy="244.60262008733625"   r="3" fill="#58a6ff"/>
<circle cx="364.83333333333337" cy="244.60262008733625" r="3" fill="#3fb950"/>
<circle cx="388.6666666666667" cy="244.60262008733625"   r="3" fill="#58a6ff"/>
<circle cx="388.6666666666667" cy="244.60262008733625" r="3" fill="#3fb950"/>
<circle cx="412.5" cy="231.10917030567686"   r="3" fill="#58a6ff"/>
<circle cx="412.5" cy="231.10917030567686" r="3" fill="#3fb950"/>
<circle cx="436.3333333333333" cy="214.0174672489083"   r="3" fill="#58a6ff"/>
<circle cx="436.3333333333333" cy="239.2052401746725" r="3" fill="#3fb950"/>
<circle cx="460.16666666666663" cy="120.46288209606988"   r="3" fill="#58a6ff"/>
<circle cx="460.16666666666663" cy="185.23144104803492" r="3" fill="#3fb950"/>
<circle cx="484" cy="44"   r="3" fill="#58a6ff"/>
<circle cx="484" cy="209.51965065502185" r="3" fill="#3fb950"/>
<circle cx="507.8333333333333" cy="106.06986899563319"   r="3" fill="#58a6ff"/>
<circle cx="507.8333333333333" cy="214.0174672489083" r="3" fill="#3fb950"/>
<circle cx="531.6666666666666" cy="242.80349344978166"   r="3" fill="#58a6ff"/>
<circle cx="531.6666666666666" cy="242.80349344978166" r="3" fill="#3fb950"/>
<circle cx="555.5" cy="214.0174672489083"   r="3" fill="#58a6ff"/>
<circle cx="555.5" cy="221.21397379912665" r="3" fill="#3fb950"/>
<circle cx="579.3333333333333" cy="203.2227074235808"   r="3" fill="#58a6ff"/>
<circle cx="579.3333333333333" cy="203.2227074235808" r="3" fill="#3fb950"/>
<circle cx="603.1666666666667" cy="160.04366812227073"   r="3" fill="#58a6ff"/>
<circle cx="603.1666666666667" cy="217.61572052401746" r="3" fill="#3fb950"/>
<circle cx="627" cy="210.41921397379912"   r="3" fill="#58a6ff"/>
<circle cx="627" cy="232.00873362445415" r="3" fill="#3fb950"/>
<circle cx="650.8333333333334" cy="106.06986899563319"   r="3" fill="#58a6ff"/>
<circle cx="650.8333333333334" cy="206.82096069868996" r="3" fill="#3fb950"/>
<circle cx="674.6666666666667" cy="124.06113537117905"   r="3" fill="#58a6ff"/>
<circle cx="674.6666666666667" cy="221.21397379912665" r="3" fill="#3fb950"/>
<circle cx="698.5" cy="106.06986899563319"   r="3" fill="#58a6ff"/>
<circle cx="698.5" cy="233.80786026200875" r="3" fill="#3fb950"/>
<circle cx="722.3333333333334" cy="206.82096069868996"   r="3" fill="#58a6ff"/>
<circle cx="722.3333333333334" cy="233.80786026200875" r="3" fill="#3fb950"/>
<circle cx="746.1666666666666" cy="233.80786026200875"   r="3" fill="#58a6ff"/>
<circle cx="746.1666666666666" cy="244.60262008733625" r="3" fill="#3fb950"/>
<circle cx="770" cy="250"   r="3" fill="#58a6ff"/>
<circle cx="770" cy="250" r="3" fill="#3fb950"/>
<text x="55" y="268" text-anchor="middle" class="lbl">03-29</text><text x="102.66666666666666" y="268" text-anchor="middle" class="lbl">03-31</text><text x="150.33333333333331" y="268" text-anchor="middle" class="lbl">04-02</text><text x="198" y="268" text-anchor="middle" class="lbl">04-04</text><text x="245.66666666666666" y="268" text-anchor="middle" class="lbl">04-06</text><text x="293.3333333333333" y="268" text-anchor="middle" class="lbl">04-08</text><text x="341" y="268" text-anchor="middle" class="lbl">04-10</text><text x="388.6666666666667" y="268" text-anchor="middle" class="lbl">04-12</text><text x="436.3333333333333" y="268" text-anchor="middle" class="lbl">04-14</text><text x="484" y="268" text-anchor="middle" class="lbl">04-16</text><text x="531.6666666666666" y="268" text-anchor="middle" class="lbl">04-18</text><text x="579.3333333333333" y="268" text-anchor="middle" class="lbl">04-20</text><text x="627" y="268" text-anchor="middle" class="lbl">04-22</text><text x="674.6666666666667" y="268" text-anchor="middle" class="lbl">04-24</text><text x="722.3333333333334" y="268" text-anchor="middle" class="lbl">04-26</text><text x="770" y="268" text-anchor="middle" class="lbl">04-28</text>
<line x1="55" y1="288" x2="71" y2="288" class="lv"/>
<text x="75" y="292" class="lbl">Views</text>
<line x1="127" y1="288" x2="143" y2="288" class="lu"/>
<text x="147" y="292" class="lbl">Unique visitors</text>
</svg>