<svg xmlns="http://www.w3.org/2000/svg" width="800" height="300" viewBox="0 0 800 300">
<style>
  .lbl { font: 11px sans-serif; fill: #8b949e; }
  .ttl { font: bold 13px sans-serif; fill: #e6edf3; }
  .grid { stroke: #21262d; stroke-width: 1; }
  .axis { stroke: #30363d; stroke-width: 1; fill: none; }
  .lv  { fill: none; stroke: #58a6ff;   stroke-width: 2; stroke-linejoin: round; stroke-linecap: round; }
  .lu  { fill: none; stroke: #3fb950; stroke-width: 2; stroke-linejoin: round; stroke-linecap: round; stroke-dasharray: 4 2; }
</style>
<rect width="800" height="300" rx="8" ry="8" fill="#161b22" stroke="#30363d" stroke-width="1"/>

<text x="400" y="26" text-anchor="middle" class="ttl">Total Daily Traffic (all repos)</text>
<line x1="55" y1="250" x2="770" y2="250" class="grid"/>
<text x="47" y="254" text-anchor="end" class="lbl">0</text>
<line x1="55" y1="198.5" x2="770" y2="198.5" class="grid"/>
<text x="47" y="202.5" text-anchor="end" class="lbl">100</text>
<line x1="55" y1="147" x2="770" y2="147" class="grid"/>
<text x="47" y="151" text-anchor="end" class="lbl">200</text>
<line x1="55" y1="95.5" x2="770" y2="95.5" class="grid"/>
<text x="47" y="99.5" text-anchor="end" class="lbl">300</text>
<line x1="55" y1="44" x2="770" y2="44" class="grid"/>
<text x="47" y="48" text-anchor="end" class="lbl">400</text>
<line x1="55" y1="44" x2="55" y2="250" class="axis"/>
<line x1="55" y1="250" x2="770" y2="250" class="axis"/>
<polyline points="55,250 76.66666666666667,250 98.33333333333334,250 120,250 141.66666666666669,250 163.33333333333334,250 185,250 206.66666666666666,250 228.33333333333334,250 249.99999999999997,250 271.6666666666667,250 293.3333333333333,212.92000000000002 315,250 336.66666666666663,246.91 358.3333333333333,246.91 380,239.185 401.6666666666667,224.25 423.3333333333333,157.3 444.99999999999994,73.35499999999999 466.6666666666667,105.80000000000001 488.33333333333337,242.79 510,213.95 531.6666666666666,203.135 553.3333333333334,159.875 575,210.345 596.6666666666666,105.80000000000001 618.3333333333333,123.82499999999999 640,44 661.6666666666666,188.2 683.3333333333334,217.04 705,247.94 726.6666666666667,232.49 748.3333333333334,246.91 770,250"   class="lv"/>
<polyline points="55,250 76.66666666666667,250 98.33333333333334,250 120,250 141.66666666666669,250 163.33333333333334,250 185,250 206.66666666666666,250 228.33333333333334,250 249.99999999999997,250 271.6666666666667,250 293.3333333333333,212.92000000000002 315,250 336.66666666666663,246.91 358.3333333333333,246.91 380,239.185 401.6666666666667,242.275 423.3333333333333,203.65 444.99999999999994,215.495 466.6666666666667,213.95 488.33333333333337,242.79 510,221.16 531.6666666666666,203.135 553.3333333333334,217.555 575,231.975 596.6666666666666,206.74 618.3333333333333,221.16 640,226.825 661.6666666666666,226.825 683.3333333333334,239.7 705,247.94 726.6666666666667,241.76 748.3333333333334,246.91 770,250" class="lu"/>

<circle cx="55" cy="250"   r="3" fill="#58a6ff"/>
<circle cx="55" cy="250" r="3" fill="#3fb950"/>
<circle cx="76.66666666666667" cy="250"   r="3" fill="#58a6ff"/>
<circle cx="76.66666666666667" cy="250" r="3" fill="#3fb950"/>
<circle cx="98.33333333333334" cy="250"   r="3" fill="#58a6ff"/>
<circle cx="98.33333333333334" cy="250" r="3" fill="#3fb950"/>
<circle cx="120" cy="250"   r="3" fill="#58a6ff"/>
<circle cx="120" cy="250" r="3" fill="#3fb950"/>
<circle cx="141.66666666666669" cy="250"   r="3" fill="#58a6ff"/>
<circle cx="141.66666666666669" cy="250" r="3" fill="#3fb950"/>
<circle cx="163.33333333333334" cy="250"   r="3" fill="#58a6ff"/>
<circle cx="163.33333333333334" cy="250" r="3" fill="#3fb950"/>
<circle cx="185" cy="250"   r="3" fill="#58a6ff"/>
<circle cx="185" cy="250" r="3" fill="#3fb950"/>
<circle cx="206.66666666666666" cy="250"   r="3" fill="#58a6ff"/>
<circle cx="206.66666666666666" cy="250" r="3" fill="#3fb950"/>
<circle cx="228.33333333333334" cy="250"   r="3" fill="#58a6ff"/>
<circle cx="228.33333333333334" cy="250" r="3" fill="#3fb950"/>
<circle cx="249.99999999999997" cy="250"   r="3" fill="#58a6ff"/>
<circle cx="249.99999999999997" cy="250" r="3" fill="#3fb950"/>
<circle cx="271.6666666666667" cy="250"   r="3" fill="#58a6ff"/>
<circle cx="271.6666666666667" cy="250" r="3" fill="#3fb950"/>
<circle cx="293.3333333333333" cy="212.92000000000002"   r="3" fill="#58a6ff"/>
<circle cx="293.3333333333333" cy="212.92000000000002" r="3" fill="#3fb950"/>
<circle cx="315" cy="250"   r="3" fill="#58a6ff"/>
<circle cx="315" cy="250" r="3" fill="#3fb950"/>
<circle cx="336.66666666666663" cy="246.91"   r="3" fill="#58a6ff"/>
<circle cx="336.66666666666663" cy="246.91" r="3" fill="#3fb950"/>
<circle cx="358.3333333333333" cy="246.91"   r="3" fill="#58a6ff"/>
<circle cx="358.3333333333333" cy="246.91" r="3" fill="#3fb950"/>
<circle cx="380" cy="239.185"   r="3" fill="#58a6ff"/>
<circle cx="380" cy="239.185" r="3" fill="#3fb950"/>
<circle cx="401.6666666666667" cy="224.25"   r="3" fill="#58a6ff"/>
<circle cx="401.6666666666667" cy="242.275" r="3" fill="#3fb950"/>
<circle cx="423.3333333333333" cy="157.3"   r="3" fill="#58a6ff"/>
<circle cx="423.3333333333333" cy="203.65" r="3" fill="#3fb950"/>
<circle cx="444.99999999999994" cy="73.35499999999999"   r="3" fill="#58a6ff"/>
<circle cx="444.99999999999994" cy="215.495" r="3" fill="#3fb950"/>
<circle cx="466.6666666666667" cy="105.80000000000001"   r="3" fill="#58a6ff"/>
<circle cx="466.6666666666667" cy="213.95" r="3" fill="#3fb950"/>
<circle cx="488.33333333333337" cy="242.79"   r="3" fill="#58a6ff"/>
<circle cx="488.33333333333337" cy="242.79" r="3" fill="#3fb950"/>
<circle cx="510" cy="213.95"   r="3" fill="#58a6ff"/>
<circle cx="510" cy="221.16" r="3" fill="#3fb950"/>
<circle cx="531.6666666666666" cy="203.135"   r="3" fill="#58a6ff"/>
<circle cx="531.6666666666666" cy="203.135" r="3" fill="#3fb950"/>
<circle cx="553.3333333333334" cy="159.875"   r="3" fill="#58a6ff"/>
<circle cx="553.3333333333334" cy="217.555" r="3" fill="#3fb950"/>
<circle cx="575" cy="210.345"   r="3" fill="#58a6ff"/>
<circle cx="575" cy="231.975" r="3" fill="#3fb950"/>
<circle cx="596.6666666666666" cy="105.80000000000001"   r="3" fill="#58a6ff"/>
<circle cx="596.6666666666666" cy="206.74" r="3" fill="#3fb950"/>
<circle cx="618.3333333333333" cy="123.82499999999999"   r="3" fill="#58a6ff"/>
<circle cx="618.3333333333333" cy="221.16" r="3" fill="#3fb950"/>
<circle cx="640" cy="44"   r="3" fill="#58a6ff"/>
<circle cx="640" cy="226.825" r="3" fill="#3fb950"/>
<circle cx="661.6666666666666" cy="188.2"   r="3" fill="#58a6ff"/>
<circle cx="661.6666666666666" cy="226.825" r="3" fill="#3fb950"/>
<circle cx="683.3333333333334" cy="217.04"   r="3" fill="#58a6ff"/>
<circle cx="683.3333333333334" cy="239.7" r="3" fill="#3fb950"/>
<circle cx="705" cy="247.94"   r="3" fill="#58a6ff"/>
<circle cx="705" cy="247.94" r="3" fill="#3fb950"/>
<circle cx="726.6666666666667" cy="232.49"   r="3" fill="#58a6ff"/>
<circle cx="726.6666666666667" cy="241.76" r="3" fill="#3fb950"/>
<circle cx="748.3333333333334" cy="246.91"   r="3" fill="#58a6ff"/>
<circle cx="748.3333333333334" cy="246.91" r="3" fill="#3fb950"/>
<circle cx="770" cy="250"   r="3" fill="#58a6ff"/>
<circle cx="770" cy="250" r="3" fill="#3fb950"/>
<text x="55" y="268" text-anchor="middle" class="lbl">03-29</text><text x="98.33333333333334" y="268" text-anchor="middle" class="lbl">03-31</text><text x="141.66666666666669" y="268" text-anchor="middle" class="lbl">04-02</text><text x="185" y="268" text-anchor="middle" class="lbl">04-04</text><text x="228.33333333333334" y="268" text-anchor="middle" class="lbl">04-06</text><text x="271.6666666666667" y="268" text-anchor="middle" class="lbl">04-08</text><text x="315" y="268" text-anchor="middle" class="lbl">04-10</text><text x="358.3333333333333" y="268" text-anchor="middle" class="lbl">04-12</text><text x="401.6666666666667" y="268" text-anchor="middle" class="lbl">04-14</text><text x="444.99999999999994" y="268" text-anchor="middle" class="lbl">04-16</text><text x="488.33333333333337" y="268" text-anchor="middle" class="lbl">04-18</text><text x="531.6666666666666" y="268" text-anchor="middle" class="lbl">04-20</text><text x="575" y="268" text-anchor="middle" class="lbl">04-22</text><text x="618.3333333333333" y="268" text-anchor="middle" class="lbl">04-24</text><text x="661.6666666666666" y="268" text-anchor="middle" class="lbl">04-26</text><text x="705" y="268" text-anchor="middle" class="lbl">04-28</text><text x="748.3333333333334" y="268" text-anchor="middle" class="lbl">04-30</text>
<line x1="55" y1="288" x2="71" y2="288" class="lv"/>
<text x="75" y="292" class="lbl">Views</text>
<line x1="127" y1="288" x2="143" y2="288" class="lu"/>
<text x="147" y="292" class="lbl">Unique visitors</text>
</svg>