<svg xmlns="http://www.w3.org/2000/svg" width="800" height="300" viewBox="0 0 800 300">
<style>
  .lbl  { font: 11px sans-serif; fill: #57606a; }
  .ttl  { font: bold 13px sans-serif; fill: #24292f; }
  .grid { stroke: #eaecef; stroke-width: 1; }
  .axis { stroke: #d0d7de; stroke-width: 1; fill: none; }
  .lv   { fill: none; stroke: #0969da;   stroke-width: 2; stroke-linejoin: round; stroke-linecap: round; }
  .lu   { fill: none; stroke: #1a7f37; stroke-width: 2; stroke-linejoin: round; stroke-linecap: round; stroke-dasharray: 4 2; }
</style>
<text x="400" y="22" text-anchor="middle" class="ttl">Total Daily Traffic (all repos)</text>
<line x1="55" y1="250" x2="770" y2="250" class="grid"/>
    <text x="47" y="254" text-anchor="end" class="lbl">0</text>
<line x1="55" y1="197.5" x2="770" y2="197.5" class="grid"/>
    <text x="47" y="201.5" text-anchor="end" class="lbl">15</text>
<line x1="55" y1="145" x2="770" y2="145" class="grid"/>
    <text x="47" y="149" text-anchor="end" class="lbl">29</text>
<line x1="55" y1="92.5" x2="770" y2="92.5" class="grid"/>
    <text x="47" y="96.5" text-anchor="end" class="lbl">44</text>
<line x1="55" y1="40" x2="770" y2="40" class="grid"/>
    <text x="47" y="44" text-anchor="end" class="lbl">58</text>
<line x1="55" y1="40" x2="55" y2="250" class="axis"/>
<line x1="55" y1="250" x2="770" y2="250" class="axis"/>
<polyline points="55,250 81.48148148148148,250 107.96296296296296,250 134.44444444444446,250 160.92592592592592,250 187.4074074074074,250 213.88888888888889,250 240.37037037037035,250 266.85185185185185,250 293.3333333333333,250 319.8148148148148,250 346.2962962962963,119.65517241379311 372.77777777777777,250 399.25925925925924,239.13793103448276 425.7407407407407,239.13793103448276 452.22222222222223,224.6551724137931 478.7037037037037,213.79310344827587 505.1851851851852,119.65517241379311 531.6666666666666,40 558.1481481481482,105.17241379310343 584.6296296296296,242.75862068965517 611.1111111111111,213.79310344827587 637.5925925925926,202.9310344827586 664.0740740740741,159.48275862068965 690.5555555555555,210.17241379310346 717.0370370370371,105.17241379310343 743.5185185185185,123.27586206896552 770,250"   class="lv"/>
<polyline points="55,250 81.48148148148148,250 107.96296296296296,250 134.44444444444446,250 160.92592592592592,250 187.4074074074074,250 213.88888888888889,250 240.37037037037035,250 266.85185185185185,250 293.3333333333333,250 319.8148148148148,250 346.2962962962963,119.65517241379311 372.77777777777777,250 399.25925925925924,239.13793103448276 425.7407407407407,239.13793103448276 452.22222222222223,224.6551724137931 478.7037037037037,239.13793103448276 505.1851851851852,184.82758620689657 531.6666666666666,206.55172413793105 558.1481481481482,213.79310344827587 584.6296296296296,242.75862068965517 611.1111111111111,221.0344827586207 637.5925925925926,202.9310344827586 664.0740740740741,217.41379310344828 690.5555555555555,231.89655172413794 717.0370370370371,206.55172413793105 743.5185185185185,221.0344827586207 770,250" class="lu"/>

    <circle cx="55" cy="250"   r="3" fill="#0969da"/>
    <circle cx="55" cy="250" r="3" fill="#1a7f37"/>
    <circle cx="81.48148148148148" cy="250"   r="3" fill="#0969da"/>
    <circle cx="81.48148148148148" cy="250" r="3" fill="#1a7f37"/>
    <circle cx="107.96296296296296" cy="250"   r="3" fill="#0969da"/>
    <circle cx="107.96296296296296" cy="250" r="3" fill="#1a7f37"/>
    <circle cx="134.44444444444446" cy="250"   r="3" fill="#0969da"/>
    <circle cx="134.44444444444446" cy="250" r="3" fill="#1a7f37"/>
    <circle cx="160.92592592592592" cy="250"   r="3" fill="#0969da"/>
    <circle cx="160.92592592592592" cy="250" r="3" fill="#1a7f37"/>
    <circle cx="187.4074074074074" cy="250"   r="3" fill="#0969da"/>
    <circle cx="187.4074074074074" cy="250" r="3" fill="#1a7f37"/>
    <circle cx="213.88888888888889" cy="250"   r="3" fill="#0969da"/>
    <circle cx="213.88888888888889" cy="250" r="3" fill="#1a7f37"/>
    <circle cx="240.37037037037035" cy="250"   r="3" fill="#0969da"/>
    <circle cx="240.37037037037035" cy="250" r="3" fill="#1a7f37"/>
    <circle cx="266.85185185185185" cy="250"   r="3" fill="#0969da"/>
    <circle cx="266.85185185185185" cy="250" r="3" fill="#1a7f37"/>
    <circle cx="293.3333333333333" cy="250"   r="3" fill="#0969da"/>
    <circle cx="293.3333333333333" cy="250" r="3" fill="#1a7f37"/>
    <circle cx="319.8148148148148" cy="250"   r="3" fill="#0969da"/>
    <circle cx="319.8148148148148" cy="250" r="3" fill="#1a7f37"/>
    <circle cx="346.2962962962963" cy="119.65517241379311"   r="3" fill="#0969da"/>
    <circle cx="346.2962962962963" cy="119.65517241379311" r="3" fill="#1a7f37"/>
    <circle cx="372.77777777777777" cy="250"   r="3" fill="#0969da"/>
    <circle cx="372.77777777777777" cy="250" r="3" fill="#1a7f37"/>
    <circle cx="399.25925925925924" cy="239.13793103448276"   r="3" fill="#0969da"/>
    <circle cx="399.25925925925924" cy="239.13793103448276" r="3" fill="#1a7f37"/>
    <circle cx="425.7407407407407" cy="239.13793103448276"   r="3" fill="#0969da"/>
    <circle cx="425.7407407407407" cy="239.13793103448276" r="3" fill="#1a7f37"/>
    <circle cx="452.22222222222223" cy="224.6551724137931"   r="3" fill="#0969da"/>
    <circle cx="452.22222222222223" cy="224.6551724137931" r="3" fill="#1a7f37"/>
    <circle cx="478.7037037037037" cy="213.79310344827587"   r="3" fill="#0969da"/>
    <circle cx="478.7037037037037" cy="239.13793103448276" r="3" fill="#1a7f37"/>
    <circle cx="505.1851851851852" cy="119.65517241379311"   r="3" fill="#0969da"/>
    <circle cx="505.1851851851852" cy="184.82758620689657" r="3" fill="#1a7f37"/>
    <circle cx="531.6666666666666" cy="40"   r="3" fill="#0969da"/>
    <circle cx="531.6666666666666" cy="206.55172413793105" r="3" fill="#1a7f37"/>
    <circle cx="558.1481481481482" cy="105.17241379310343"   r="3" fill="#0969da"/>
    <circle cx="558.1481481481482" cy="213.79310344827587" r="3" fill="#1a7f37"/>
    <circle cx="584.6296296296296" cy="242.75862068965517"   r="3" fill="#0969da"/>
    <circle cx="584.6296296296296" cy="242.75862068965517" r="3" fill="#1a7f37"/>
    <circle cx="611.1111111111111" cy="213.79310344827587"   r="3" fill="#0969da"/>
    <circle cx="611.1111111111111" cy="221.0344827586207" r="3" fill="#1a7f37"/>
    <circle cx="637.5925925925926" cy="202.9310344827586"   r="3" fill="#0969da"/>
    <circle cx="637.5925925925926" cy="202.9310344827586" r="3" fill="#1a7f37"/>
    <circle cx="664.0740740740741" cy="159.48275862068965"   r="3" fill="#0969da"/>
    <circle cx="664.0740740740741" cy="217.41379310344828" r="3" fill="#1a7f37"/>
    <circle cx="690.5555555555555" cy="210.17241379310346"   r="3" fill="#0969da"/>
    <circle cx="690.5555555555555" cy="231.89655172413794" r="3" fill="#1a7f37"/>
    <circle cx="717.0370370370371" cy="105.17241379310343"   r="3" fill="#0969da"/>
    <circle cx="717.0370370370371" cy="206.55172413793105" r="3" fill="#1a7f37"/>
    <circle cx="743.5185185185185" cy="123.27586206896552"   r="3" fill="#0969da"/>
    <circle cx="743.5185185185185" cy="221.0344827586207" r="3" fill="#1a7f37"/>
    <circle cx="770" cy="250"   r="3" fill="#0969da"/>
    <circle cx="770" cy="250" r="3" fill="#1a7f37"/>
<text x="55" y="268" text-anchor="middle" class="lbl">03-29</text><text x="107.96296296296296" y="268" text-anchor="middle" class="lbl">03-31</text><text x="160.92592592592592" y="268" text-anchor="middle" class="lbl">04-02</text><text x="213.88888888888889" y="268" text-anchor="middle" class="lbl">04-04</text><text x="266.85185185185185" y="268" text-anchor="middle" class="lbl">04-06</text><text x="319.8148148148148" y="268" text-anchor="middle" class="lbl">04-08</text><text x="372.77777777777777" y="268" text-anchor="middle" class="lbl">04-10</text><text x="425.7407407407407" y="268" text-anchor="middle" class="lbl">04-12</text><text x="478.7037037037037" y="268" text-anchor="middle" class="lbl">04-14</text><text x="531.6666666666666" y="268" text-anchor="middle" class="lbl">04-16</text><text x="584.6296296296296" y="268" text-anchor="middle" class="lbl">04-18</text><text x="637.5925925925926" y="268" text-anchor="middle" class="lbl">04-20</text><text x="690.5555555555555" y="268" text-anchor="middle" class="lbl">04-22</text><text x="743.5185185185185" y="268" text-anchor="middle" class="lbl">04-24</text>
<line x1="55" y1="290" x2="71" y2="290" class="lv"/>
<text x="75" y="294" class="lbl">Views</text>
<line x1="125" y1="290" x2="141" y2="290" class="lu"/>
<text x="145" y="294" class="lbl">Unique visitors</text>
</svg>