<svg xmlns="http://www.w3.org/2000/svg" width="800" height="300" viewBox="0 0 800 300">
<style>
  .lbl { font: 11px sans-serif; fill: #8b949e; }
  .ttl { font: bold 13px sans-serif; fill: #e6edf3; }
  .grid { stroke: #21262d; stroke-width: 1; }
  .axis { stroke: #30363d; stroke-width: 1; fill: none; }
  .lv  { fill: none; stroke: #58a6ff;   stroke-width: 2; stroke-linejoin: round; stroke-linecap: round; }
  .lu  { fill: none; stroke: #3fb950; stroke-width: 2; stroke-linejoin: round; stroke-linecap: round; stroke-dasharray: 4 2; }
</style>
<rect width="800" height="300" rx="8" ry="8" fill="#161b22" stroke="#30363d" stroke-width="1"/>

<text x="400" y="26" text-anchor="middle" class="ttl">Total Daily Traffic (all repos)</text>
<line x1="55" y1="250" x2="770" y2="250" class="grid"/>
<text x="47" y="254" text-anchor="end" class="lbl">0</text>
<line x1="55" y1="198.5" x2="770" y2="198.5" class="grid"/>
<text x="47" y="202.5" text-anchor="end" class="lbl">15</text>
<line x1="55" y1="147" x2="770" y2="147" class="grid"/>
<text x="47" y="151" text-anchor="end" class="lbl">29</text>
<line x1="55" y1="95.5" x2="770" y2="95.5" class="grid"/>
<text x="47" y="99.5" text-anchor="end" class="lbl">44</text>
<line x1="55" y1="44" x2="770" y2="44" class="grid"/>
<text x="47" y="48" text-anchor="end" class="lbl">58</text>
<line x1="55" y1="44" x2="55" y2="250" class="axis"/>
<line x1="55" y1="250" x2="770" y2="250" class="axis"/>
<polyline points="55,250 81.48148148148148,250 107.96296296296296,250 134.44444444444446,250 160.92592592592592,250 187.4074074074074,250 213.88888888888889,250 240.37037037037035,250 266.85185185185185,250 293.3333333333333,250 319.8148148148148,250 346.2962962962963,122.13793103448276 372.77777777777777,250 399.25925925925924,239.3448275862069 425.7407407407407,239.3448275862069 452.22222222222223,225.13793103448276 478.7037037037037,214.48275862068965 505.1851851851852,122.13793103448276 531.6666666666666,44 558.1481481481482,107.9310344827586 584.6296296296296,242.89655172413794 611.1111111111111,214.48275862068965 637.5925925925926,203.82758620689654 664.0740740740741,161.20689655172413 690.5555555555555,210.9310344827586 717.0370370370371,107.9310344827586 743.5185185185185,125.6896551724138 770,250"   class="lv"/>
<polyline points="55,250 81.48148148148148,250 107.96296296296296,250 134.44444444444446,250 160.92592592592592,250 187.4074074074074,250 213.88888888888889,250 240.37037037037035,250 266.85185185185185,250 293.3333333333333,250 319.8148148148148,250 346.2962962962963,122.13793103448276 372.77777777777777,250 399.25925925925924,239.3448275862069 425.7407407407407,239.3448275862069 452.22222222222223,225.13793103448276 478.7037037037037,239.3448275862069 505.1851851851852,186.0689655172414 531.6666666666666,207.3793103448276 558.1481481481482,214.48275862068965 584.6296296296296,242.89655172413794 611.1111111111111,221.58620689655172 637.5925925925926,203.82758620689654 664.0740740740741,218.0344827586207 690.5555555555555,232.24137931034483 717.0370370370371,207.3793103448276 743.5185185185185,221.58620689655172 770,250" class="lu"/>

<circle cx="55" cy="250"   r="3" fill="#58a6ff"/>
<circle cx="55" cy="250" r="3" fill="#3fb950"/>
<circle cx="81.48148148148148" cy="250"   r="3" fill="#58a6ff"/>
<circle cx="81.48148148148148" cy="250" r="3" fill="#3fb950"/>
<circle cx="107.96296296296296" cy="250"   r="3" fill="#58a6ff"/>
<circle cx="107.96296296296296" cy="250" r="3" fill="#3fb950"/>
<circle cx="134.44444444444446" cy="250"   r="3" fill="#58a6ff"/>
<circle cx="134.44444444444446" cy="250" r="3" fill="#3fb950"/>
<circle cx="160.92592592592592" cy="250"   r="3" fill="#58a6ff"/>
<circle cx="160.92592592592592" cy="250" r="3" fill="#3fb950"/>
<circle cx="187.4074074074074" cy="250"   r="3" fill="#58a6ff"/>
<circle cx="187.4074074074074" cy="250" r="3" fill="#3fb950"/>
<circle cx="213.88888888888889" cy="250"   r="3" fill="#58a6ff"/>
<circle cx="213.88888888888889" cy="250" r="3" fill="#3fb950"/>
<circle cx="240.37037037037035" cy="250"   r="3" fill="#58a6ff"/>
<circle cx="240.37037037037035" cy="250" r="3" fill="#3fb950"/>
<circle cx="266.85185185185185" cy="250"   r="3" fill="#58a6ff"/>
<circle cx="266.85185185185185" cy="250" r="3" fill="#3fb950"/>
<circle cx="293.3333333333333" cy="250"   r="3" fill="#58a6ff"/>
<circle cx="293.3333333333333" cy="250" r="3" fill="#3fb950"/>
<circle cx="319.8148148148148" cy="250"   r="3" fill="#58a6ff"/>
<circle cx="319.8148148148148" cy="250" r="3" fill="#3fb950"/>
<circle cx="346.2962962962963" cy="122.13793103448276"   r="3" fill="#58a6ff"/>
<circle cx="346.2962962962963" cy="122.13793103448276" r="3" fill="#3fb950"/>
<circle cx="372.77777777777777" cy="250"   r="3" fill="#58a6ff"/>
<circle cx="372.77777777777777" cy="250" r="3" fill="#3fb950"/>
<circle cx="399.25925925925924" cy="239.3448275862069"   r="3" fill="#58a6ff"/>
<circle cx="399.25925925925924" cy="239.3448275862069" r="3" fill="#3fb950"/>
<circle cx="425.7407407407407" cy="239.3448275862069"   r="3" fill="#58a6ff"/>
<circle cx="425.7407407407407" cy="239.3448275862069" r="3" fill="#3fb950"/>
<circle cx="452.22222222222223" cy="225.13793103448276"   r="3" fill="#58a6ff"/>
<circle cx="452.22222222222223" cy="225.13793103448276" r="3" fill="#3fb950"/>
<circle cx="478.7037037037037" cy="214.48275862068965"   r="3" fill="#58a6ff"/>
<circle cx="478.7037037037037" cy="239.3448275862069" r="3" fill="#3fb950"/>
<circle cx="505.1851851851852" cy="122.13793103448276"   r="3" fill="#58a6ff"/>
<circle cx="505.1851851851852" cy="186.0689655172414" r="3" fill="#3fb950"/>
<circle cx="531.6666666666666" cy="44"   r="3" fill="#58a6ff"/>
<circle cx="531.6666666666666" cy="207.3793103448276" r="3" fill="#3fb950"/>
<circle cx="558.1481481481482" cy="107.9310344827586"   r="3" fill="#58a6ff"/>
<circle cx="558.1481481481482" cy="214.48275862068965" r="3" fill="#3fb950"/>
<circle cx="584.6296296296296" cy="242.89655172413794"   r="3" fill="#58a6ff"/>
<circle cx="584.6296296296296" cy="242.89655172413794" r="3" fill="#3fb950"/>
<circle cx="611.1111111111111" cy="214.48275862068965"   r="3" fill="#58a6ff"/>
<circle cx="611.1111111111111" cy="221.58620689655172" r="3" fill="#3fb950"/>
<circle cx="637.5925925925926" cy="203.82758620689654"   r="3" fill="#58a6ff"/>
<circle cx="637.5925925925926" cy="203.82758620689654" r="3" fill="#3fb950"/>
<circle cx="664.0740740740741" cy="161.20689655172413"   r="3" fill="#58a6ff"/>
<circle cx="664.0740740740741" cy="218.0344827586207" r="3" fill="#3fb950"/>
<circle cx="690.5555555555555" cy="210.9310344827586"   r="3" fill="#58a6ff"/>
<circle cx="690.5555555555555" cy="232.24137931034483" r="3" fill="#3fb950"/>
<circle cx="717.0370370370371" cy="107.9310344827586"   r="3" fill="#58a6ff"/>
<circle cx="717.0370370370371" cy="207.3793103448276" r="3" fill="#3fb950"/>
<circle cx="743.5185185185185" cy="125.6896551724138"   r="3" fill="#58a6ff"/>
<circle cx="743.5185185185185" cy="221.58620689655172" r="3" fill="#3fb950"/>
<circle cx="770" cy="250"   r="3" fill="#58a6ff"/>
<circle cx="770" cy="250" r="3" fill="#3fb950"/>
<text x="55" y="268" text-anchor="middle" class="lbl">03-29</text><text x="107.96296296296296" y="268" text-anchor="middle" class="lbl">03-31</text><text x="160.92592592592592" y="268" text-anchor="middle" class="lbl">04-02</text><text x="213.88888888888889" y="268" text-anchor="middle" class="lbl">04-04</text><text x="266.85185185185185" y="268" text-anchor="middle" class="lbl">04-06</text><text x="319.8148148148148" y="268" text-anchor="middle" class="lbl">04-08</text><text x="372.77777777777777" y="268" text-anchor="middle" class="lbl">04-10</text><text x="425.7407407407407" y="268" text-anchor="middle" class="lbl">04-12</text><text x="478.7037037037037" y="268" text-anchor="middle" class="lbl">04-14</text><text x="531.6666666666666" y="268" text-anchor="middle" class="lbl">04-16</text><text x="584.6296296296296" y="268" text-anchor="middle" class="lbl">04-18</text><text x="637.5925925925926" y="268" text-anchor="middle" class="lbl">04-20</text><text x="690.5555555555555" y="268" text-anchor="middle" class="lbl">04-22</text><text x="743.5185185185185" y="268" text-anchor="middle" class="lbl">04-24</text>
<line x1="55" y1="288" x2="71" y2="288" class="lv"/>
<text x="75" y="292" class="lbl">Views</text>
<line x1="127" y1="288" x2="143" y2="288" class="lu"/>
<text x="147" y="292" class="lbl">Unique visitors</text>
</svg>