<svg xmlns="http://www.w3.org/2000/svg" width="800" height="300" viewBox="0 0 800 300">
<style>
  .lbl { font: 11px sans-serif; fill: #8b949e; }
  .ttl { font: bold 13px sans-serif; fill: #e6edf3; }
  .grid { stroke: #21262d; stroke-width: 1; }
  .axis { stroke: #30363d; stroke-width: 1; fill: none; }
  .lv  { fill: none; stroke: #58a6ff;   stroke-width: 2; stroke-linejoin: round; stroke-linecap: round; }
  .lu  { fill: none; stroke: #3fb950; stroke-width: 2; stroke-linejoin: round; stroke-linecap: round; stroke-dasharray: 4 2; }
</style>
<rect width="800" height="300" rx="8" ry="8" fill="#161b22" stroke="#30363d" stroke-width="1"/>

<text x="400" y="26" text-anchor="middle" class="ttl">Total Daily Traffic (all repos)</text>
<line x1="55" y1="250" x2="770" y2="250" class="grid"/>
<text x="47" y="254" text-anchor="end" class="lbl">0</text>
<line x1="55" y1="198.5" x2="770" y2="198.5" class="grid"/>
<text x="47" y="202.5" text-anchor="end" class="lbl">43</text>
<line x1="55" y1="147" x2="770" y2="147" class="grid"/>
<text x="47" y="151" text-anchor="end" class="lbl">86</text>
<line x1="55" y1="95.5" x2="770" y2="95.5" class="grid"/>
<text x="47" y="99.5" text-anchor="end" class="lbl">129</text>
<line x1="55" y1="44" x2="770" y2="44" class="grid"/>
<text x="47" y="48" text-anchor="end" class="lbl">172</text>
<line x1="55" y1="44" x2="55" y2="250" class="axis"/>
<line x1="55" y1="250" x2="770" y2="250" class="axis"/>
<polyline points="55,250 79.65517241379311,250 104.3103448275862,250 128.9655172413793,250 153.6206896551724,250 178.27586206896552,250 202.9310344827586,250 227.58620689655174,250 252.24137931034483,250 276.8965517241379,250 301.55172413793105,250 326.2068965517241,163.7674418604651 350.8620689655172,250 375.51724137931035,242.81395348837208 400.1724137931035,242.81395348837208 424.82758620689657,224.84883720930233 449.48275862068965,214.06976744186045 474.13793103448273,120.65116279069767 498.7931034482759,44 523.448275862069,106.27906976744185 548.1034482758621,242.81395348837208 572.7586206896552,214.06976744186045 597.4137931034483,203.2906976744186 622.0689655172414,160.17441860465118 646.7241379310344,210.47674418604652 671.3793103448276,106.27906976744185 696.0344827586207,124.24418604651163 720.6896551724137,154.18604651162792 745.344827586207,221.25581395348837 770,250"   class="lv"/>
<polyline points="55,250 79.65517241379311,250 104.3103448275862,250 128.9655172413793,250 153.6206896551724,250 178.27586206896552,250 202.9310344827586,250 227.58620689655174,250 252.24137931034483,250 276.8965517241379,250 301.55172413793105,250 326.2068965517241,163.7674418604651 350.8620689655172,250 375.51724137931035,242.81395348837208 400.1724137931035,242.81395348837208 424.82758620689657,224.84883720930233 449.48275862068965,239.22093023255815 474.13793103448273,185.32558139534882 498.7931034482759,209.27906976744185 523.448275862069,214.06976744186045 548.1034482758621,242.81395348837208 572.7586206896552,221.25581395348837 597.4137931034483,203.2906976744186 622.0689655172414,217.6627906976744 646.7241379310344,232.03488372093022 671.3793103448276,206.88372093023256 696.0344827586207,221.25581395348837 720.6896551724137,239.22093023255815 745.344827586207,239.22093023255815 770,250" class="lu"/>

<circle cx="55" cy="250"   r="3" fill="#58a6ff"/>
<circle cx="55" cy="250" r="3" fill="#3fb950"/>
<circle cx="79.65517241379311" cy="250"   r="3" fill="#58a6ff"/>
<circle cx="79.65517241379311" cy="250" r="3" fill="#3fb950"/>
<circle cx="104.3103448275862" cy="250"   r="3" fill="#58a6ff"/>
<circle cx="104.3103448275862" cy="250" r="3" fill="#3fb950"/>
<circle cx="128.9655172413793" cy="250"   r="3" fill="#58a6ff"/>
<circle cx="128.9655172413793" cy="250" r="3" fill="#3fb950"/>
<circle cx="153.6206896551724" cy="250"   r="3" fill="#58a6ff"/>
<circle cx="153.6206896551724" cy="250" r="3" fill="#3fb950"/>
<circle cx="178.27586206896552" cy="250"   r="3" fill="#58a6ff"/>
<circle cx="178.27586206896552" cy="250" r="3" fill="#3fb950"/>
<circle cx="202.9310344827586" cy="250"   r="3" fill="#58a6ff"/>
<circle cx="202.9310344827586" cy="250" r="3" fill="#3fb950"/>
<circle cx="227.58620689655174" cy="250"   r="3" fill="#58a6ff"/>
<circle cx="227.58620689655174" cy="250" r="3" fill="#3fb950"/>
<circle cx="252.24137931034483" cy="250"   r="3" fill="#58a6ff"/>
<circle cx="252.24137931034483" cy="250" r="3" fill="#3fb950"/>
<circle cx="276.8965517241379" cy="250"   r="3" fill="#58a6ff"/>
<circle cx="276.8965517241379" cy="250" r="3" fill="#3fb950"/>
<circle cx="301.55172413793105" cy="250"   r="3" fill="#58a6ff"/>
<circle cx="301.55172413793105" cy="250" r="3" fill="#3fb950"/>
<circle cx="326.2068965517241" cy="163.7674418604651"   r="3" fill="#58a6ff"/>
<circle cx="326.2068965517241" cy="163.7674418604651" r="3" fill="#3fb950"/>
<circle cx="350.8620689655172" cy="250"   r="3" fill="#58a6ff"/>
<circle cx="350.8620689655172" cy="250" r="3" fill="#3fb950"/>
<circle cx="375.51724137931035" cy="242.81395348837208"   r="3" fill="#58a6ff"/>
<circle cx="375.51724137931035" cy="242.81395348837208" r="3" fill="#3fb950"/>
<circle cx="400.1724137931035" cy="242.81395348837208"   r="3" fill="#58a6ff"/>
<circle cx="400.1724137931035" cy="242.81395348837208" r="3" fill="#3fb950"/>
<circle cx="424.82758620689657" cy="224.84883720930233"   r="3" fill="#58a6ff"/>
<circle cx="424.82758620689657" cy="224.84883720930233" r="3" fill="#3fb950"/>
<circle cx="449.48275862068965" cy="214.06976744186045"   r="3" fill="#58a6ff"/>
<circle cx="449.48275862068965" cy="239.22093023255815" r="3" fill="#3fb950"/>
<circle cx="474.13793103448273" cy="120.65116279069767"   r="3" fill="#58a6ff"/>
<circle cx="474.13793103448273" cy="185.32558139534882" r="3" fill="#3fb950"/>
<circle cx="498.7931034482759" cy="44"   r="3" fill="#58a6ff"/>
<circle cx="498.7931034482759" cy="209.27906976744185" r="3" fill="#3fb950"/>
<circle cx="523.448275862069" cy="106.27906976744185"   r="3" fill="#58a6ff"/>
<circle cx="523.448275862069" cy="214.06976744186045" r="3" fill="#3fb950"/>
<circle cx="548.1034482758621" cy="242.81395348837208"   r="3" fill="#58a6ff"/>
<circle cx="548.1034482758621" cy="242.81395348837208" r="3" fill="#3fb950"/>
<circle cx="572.7586206896552" cy="214.06976744186045"   r="3" fill="#58a6ff"/>
<circle cx="572.7586206896552" cy="221.25581395348837" r="3" fill="#3fb950"/>
<circle cx="597.4137931034483" cy="203.2906976744186"   r="3" fill="#58a6ff"/>
<circle cx="597.4137931034483" cy="203.2906976744186" r="3" fill="#3fb950"/>
<circle cx="622.0689655172414" cy="160.17441860465118"   r="3" fill="#58a6ff"/>
<circle cx="622.0689655172414" cy="217.6627906976744" r="3" fill="#3fb950"/>
<circle cx="646.7241379310344" cy="210.47674418604652"   r="3" fill="#58a6ff"/>
<circle cx="646.7241379310344" cy="232.03488372093022" r="3" fill="#3fb950"/>
<circle cx="671.3793103448276" cy="106.27906976744185"   r="3" fill="#58a6ff"/>
<circle cx="671.3793103448276" cy="206.88372093023256" r="3" fill="#3fb950"/>
<circle cx="696.0344827586207" cy="124.24418604651163"   r="3" fill="#58a6ff"/>
<circle cx="696.0344827586207" cy="221.25581395348837" r="3" fill="#3fb950"/>
<circle cx="720.6896551724137" cy="154.18604651162792"   r="3" fill="#58a6ff"/>
<circle cx="720.6896551724137" cy="239.22093023255815" r="3" fill="#3fb950"/>
<circle cx="745.344827586207" cy="221.25581395348837"   r="3" fill="#58a6ff"/>
<circle cx="745.344827586207" cy="239.22093023255815" r="3" fill="#3fb950"/>
<circle cx="770" cy="250"   r="3" fill="#58a6ff"/>
<circle cx="770" cy="250" r="3" fill="#3fb950"/>
<text x="55" y="268" text-anchor="middle" class="lbl">03-29</text><text x="104.3103448275862" y="268" text-anchor="middle" class="lbl">03-31</text><text x="153.6206896551724" y="268" text-anchor="middle" class="lbl">04-02</text><text x="202.9310344827586" y="268" text-anchor="middle" class="lbl">04-04</text><text x="252.24137931034483" y="268" text-anchor="middle" class="lbl">04-06</text><text x="301.55172413793105" y="268" text-anchor="middle" class="lbl">04-08</text><text x="350.8620689655172" y="268" text-anchor="middle" class="lbl">04-10</text><text x="400.1724137931035" y="268" text-anchor="middle" class="lbl">04-12</text><text x="449.48275862068965" y="268" text-anchor="middle" class="lbl">04-14</text><text x="498.7931034482759" y="268" text-anchor="middle" class="lbl">04-16</text><text x="548.1034482758621" y="268" text-anchor="middle" class="lbl">04-18</text><text x="597.4137931034483" y="268" text-anchor="middle" class="lbl">04-20</text><text x="646.7241379310344" y="268" text-anchor="middle" class="lbl">04-22</text><text x="696.0344827586207" y="268" text-anchor="middle" class="lbl">04-24</text><text x="745.344827586207" y="268" text-anchor="middle" class="lbl">04-26</text>
<line x1="55" y1="288" x2="71" y2="288" class="lv"/>
<text x="75" y="292" class="lbl">Views</text>
<line x1="127" y1="288" x2="143" y2="288" class="lu"/>
<text x="147" y="292" class="lbl">Unique visitors</text>
</svg>