<svg xmlns="http://www.w3.org/2000/svg" width="800" height="300" viewBox="0 0 800 300">
<style>
  .lbl { font: 11px sans-serif; fill: #8b949e; }
  .ttl { font: bold 13px sans-serif; fill: #e6edf3; }
  .grid { stroke: #21262d; stroke-width: 1; }
  .axis { stroke: #30363d; stroke-width: 1; fill: none; }
  .lv  { fill: none; stroke: #58a6ff;   stroke-width: 2; stroke-linejoin: round; stroke-linecap: round; }
  .lu  { fill: none; stroke: #3fb950; stroke-width: 2; stroke-linejoin: round; stroke-linecap: round; stroke-dasharray: 4 2; }
</style>
<rect width="800" height="300" rx="8" ry="8" fill="#161b22" stroke="#30363d" stroke-width="1"/>

<text x="400" y="26" text-anchor="middle" class="ttl">Total Daily Traffic (all repos)</text>
<line x1="55" y1="250" x2="770" y2="250" class="grid"/>
<text x="47" y="254" text-anchor="end" class="lbl">0</text>
<line x1="55" y1="198.5" x2="770" y2="198.5" class="grid"/>
<text x="47" y="202.5" text-anchor="end" class="lbl">86</text>
<line x1="55" y1="147" x2="770" y2="147" class="grid"/>
<text x="47" y="151" text-anchor="end" class="lbl">172</text>
<line x1="55" y1="95.5" x2="770" y2="95.5" class="grid"/>
<text x="47" y="99.5" text-anchor="end" class="lbl">257</text>
<line x1="55" y1="44" x2="770" y2="44" class="grid"/>
<text x="47" y="48" text-anchor="end" class="lbl">343</text>
<line x1="55" y1="44" x2="55" y2="250" class="axis"/>
<line x1="55" y1="250" x2="770" y2="250" class="axis"/>
<polyline points="55,250 77.34375,250 99.6875,250 122.03125,250 144.375,250 166.71875,250 189.0625,250 211.40625,250 233.75,250 256.09375,250 278.4375,250 300.78125,206.75801749271136 323.125,250 345.46875,246.39650145772595 367.8125,246.39650145772595 390.15625,237.3877551020408 412.5,219.97084548104957 434.84375,141.89504373177843 457.1875,44 479.53125,105.8600583090379 501.875,242.7930029154519 524.21875,213.96501457725947 546.5625,203.1545189504373 568.90625,159.9125364431487 591.25,210.3615160349854 613.59375,105.8600583090379 635.9375,123.87755102040816 658.28125,57.81341107871722 680.625,192.34402332361515 702.96875,219.97084548104957 725.3125,248.798833819242 747.65625,239.79008746355686 770,250"   class="lv"/>
<polyline points="55,250 77.34375,250 99.6875,250 122.03125,250 144.375,250 166.71875,250 189.0625,250 211.40625,250 233.75,250 256.09375,250 278.4375,250 300.78125,206.75801749271136 323.125,250 345.46875,246.39650145772595 367.8125,246.39650145772595 390.15625,237.3877551020408 412.5,240.99125364431487 434.84375,195.9475218658892 457.1875,209.76093294460642 479.53125,213.96501457725947 501.875,242.7930029154519 524.21875,221.17201166180757 546.5625,203.1545189504373 568.90625,217.56851311953352 591.25,231.98250728862973 613.59375,206.75801749271136 635.9375,221.17201166180757 658.28125,228.37900874635568 680.625,228.37900874635568 702.96875,240.39067055393585 725.3125,248.798833819242 747.65625,245.19533527696794 770,250" class="lu"/>

<circle cx="55" cy="250"   r="3" fill="#58a6ff"/>
<circle cx="55" cy="250" r="3" fill="#3fb950"/>
<circle cx="77.34375" cy="250"   r="3" fill="#58a6ff"/>
<circle cx="77.34375" cy="250" r="3" fill="#3fb950"/>
<circle cx="99.6875" cy="250"   r="3" fill="#58a6ff"/>
<circle cx="99.6875" cy="250" r="3" fill="#3fb950"/>
<circle cx="122.03125" cy="250"   r="3" fill="#58a6ff"/>
<circle cx="122.03125" cy="250" r="3" fill="#3fb950"/>
<circle cx="144.375" cy="250"   r="3" fill="#58a6ff"/>
<circle cx="144.375" cy="250" r="3" fill="#3fb950"/>
<circle cx="166.71875" cy="250"   r="3" fill="#58a6ff"/>
<circle cx="166.71875" cy="250" r="3" fill="#3fb950"/>
<circle cx="189.0625" cy="250"   r="3" fill="#58a6ff"/>
<circle cx="189.0625" cy="250" r="3" fill="#3fb950"/>
<circle cx="211.40625" cy="250"   r="3" fill="#58a6ff"/>
<circle cx="211.40625" cy="250" r="3" fill="#3fb950"/>
<circle cx="233.75" cy="250"   r="3" fill="#58a6ff"/>
<circle cx="233.75" cy="250" r="3" fill="#3fb950"/>
<circle cx="256.09375" cy="250"   r="3" fill="#58a6ff"/>
<circle cx="256.09375" cy="250" r="3" fill="#3fb950"/>
<circle cx="278.4375" cy="250"   r="3" fill="#58a6ff"/>
<circle cx="278.4375" cy="250" r="3" fill="#3fb950"/>
<circle cx="300.78125" cy="206.75801749271136"   r="3" fill="#58a6ff"/>
<circle cx="300.78125" cy="206.75801749271136" r="3" fill="#3fb950"/>
<circle cx="323.125" cy="250"   r="3" fill="#58a6ff"/>
<circle cx="323.125" cy="250" r="3" fill="#3fb950"/>
<circle cx="345.46875" cy="246.39650145772595"   r="3" fill="#58a6ff"/>
<circle cx="345.46875" cy="246.39650145772595" r="3" fill="#3fb950"/>
<circle cx="367.8125" cy="246.39650145772595"   r="3" fill="#58a6ff"/>
<circle cx="367.8125" cy="246.39650145772595" r="3" fill="#3fb950"/>
<circle cx="390.15625" cy="237.3877551020408"   r="3" fill="#58a6ff"/>
<circle cx="390.15625" cy="237.3877551020408" r="3" fill="#3fb950"/>
<circle cx="412.5" cy="219.97084548104957"   r="3" fill="#58a6ff"/>
<circle cx="412.5" cy="240.99125364431487" r="3" fill="#3fb950"/>
<circle cx="434.84375" cy="141.89504373177843"   r="3" fill="#58a6ff"/>
<circle cx="434.84375" cy="195.9475218658892" r="3" fill="#3fb950"/>
<circle cx="457.1875" cy="44"   r="3" fill="#58a6ff"/>
<circle cx="457.1875" cy="209.76093294460642" r="3" fill="#3fb950"/>
<circle cx="479.53125" cy="105.8600583090379"   r="3" fill="#58a6ff"/>
<circle cx="479.53125" cy="213.96501457725947" r="3" fill="#3fb950"/>
<circle cx="501.875" cy="242.7930029154519"   r="3" fill="#58a6ff"/>
<circle cx="501.875" cy="242.7930029154519" r="3" fill="#3fb950"/>
<circle cx="524.21875" cy="213.96501457725947"   r="3" fill="#58a6ff"/>
<circle cx="524.21875" cy="221.17201166180757" r="3" fill="#3fb950"/>
<circle cx="546.5625" cy="203.1545189504373"   r="3" fill="#58a6ff"/>
<circle cx="546.5625" cy="203.1545189504373" r="3" fill="#3fb950"/>
<circle cx="568.90625" cy="159.9125364431487"   r="3" fill="#58a6ff"/>
<circle cx="568.90625" cy="217.56851311953352" r="3" fill="#3fb950"/>
<circle cx="591.25" cy="210.3615160349854"   r="3" fill="#58a6ff"/>
<circle cx="591.25" cy="231.98250728862973" r="3" fill="#3fb950"/>
<circle cx="613.59375" cy="105.8600583090379"   r="3" fill="#58a6ff"/>
<circle cx="613.59375" cy="206.75801749271136" r="3" fill="#3fb950"/>
<circle cx="635.9375" cy="123.87755102040816"   r="3" fill="#58a6ff"/>
<circle cx="635.9375" cy="221.17201166180757" r="3" fill="#3fb950"/>
<circle cx="658.28125" cy="57.81341107871722"   r="3" fill="#58a6ff"/>
<circle cx="658.28125" cy="228.37900874635568" r="3" fill="#3fb950"/>
<circle cx="680.625" cy="192.34402332361515"   r="3" fill="#58a6ff"/>
<circle cx="680.625" cy="228.37900874635568" r="3" fill="#3fb950"/>
<circle cx="702.96875" cy="219.97084548104957"   r="3" fill="#58a6ff"/>
<circle cx="702.96875" cy="240.39067055393585" r="3" fill="#3fb950"/>
<circle cx="725.3125" cy="248.798833819242"   r="3" fill="#58a6ff"/>
<circle cx="725.3125" cy="248.798833819242" r="3" fill="#3fb950"/>
<circle cx="747.65625" cy="239.79008746355686"   r="3" fill="#58a6ff"/>
<circle cx="747.65625" cy="245.19533527696794" r="3" fill="#3fb950"/>
<circle cx="770" cy="250"   r="3" fill="#58a6ff"/>
<circle cx="770" cy="250" r="3" fill="#3fb950"/>
<text x="55" y="268" text-anchor="middle" class="lbl">03-29</text><text x="99.6875" y="268" text-anchor="middle" class="lbl">03-31</text><text x="144.375" y="268" text-anchor="middle" class="lbl">04-02</text><text x="189.0625" y="268" text-anchor="middle" class="lbl">04-04</text><text x="233.75" y="268" text-anchor="middle" class="lbl">04-06</text><text x="278.4375" y="268" text-anchor="middle" class="lbl">04-08</text><text x="323.125" y="268" text-anchor="middle" class="lbl">04-10</text><text x="367.8125" y="268" text-anchor="middle" class="lbl">04-12</text><text x="412.5" y="268" text-anchor="middle" class="lbl">04-14</text><text x="457.1875" y="268" text-anchor="middle" class="lbl">04-16</text><text x="501.875" y="268" text-anchor="middle" class="lbl">04-18</text><text x="546.5625" y="268" text-anchor="middle" class="lbl">04-20</text><text x="591.25" y="268" text-anchor="middle" class="lbl">04-22</text><text x="635.9375" y="268" text-anchor="middle" class="lbl">04-24</text><text x="680.625" y="268" text-anchor="middle" class="lbl">04-26</text><text x="725.3125" y="268" text-anchor="middle" class="lbl">04-28</text><text x="770" y="268" text-anchor="middle" class="lbl">04-30</text>
<line x1="55" y1="288" x2="71" y2="288" class="lv"/>
<text x="75" y="292" class="lbl">Views</text>
<line x1="127" y1="288" x2="143" y2="288" class="lu"/>
<text x="147" y="292" class="lbl">Unique visitors</text>
</svg>