<svg xmlns="http://www.w3.org/2000/svg" width="800" height="360" viewBox="0 0 800 360">
<style>
  .lbl { font: 11px sans-serif; fill: #8b949e; }
  .ttl { font: bold 13px sans-serif; fill: #e6edf3; }
  .grid { stroke: #21262d; stroke-width: 1; }
  .axis { stroke: #30363d; stroke-width: 1; fill: none; }
  .lv  { fill: none; stroke: #58a6ff;   stroke-width: 2; stroke-linejoin: round; stroke-linecap: round; }
  .lu  { fill: none; stroke: #3fb950; stroke-width: 2; stroke-linejoin: round; stroke-linecap: round; stroke-dasharray: 4 2; }
</style>
<rect width="800" height="360" rx="8" ry="8" fill="#161b22" stroke="#30363d" stroke-width="1"/>

<text x="400" y="26" text-anchor="middle" class="ttl">Top 10 Repos by Total Views</text>

<rect x="160" y="44" width="580" height="22" fill="#58a6ff" rx="3"/>
<rect x="160" y="44" width="85.92592592592592" height="7.333333333333333" fill="#3fb950" rx="2" opacity="0.85"/>
<text x="152" y="59" text-anchor="end" class="lbl">hardcode.blog</text>
<text x="746" y="59" class="lbl">27</text>
<rect x="160" y="72" width="429.6296296296296" height="22" fill="#58a6ff" rx="3"/>
<rect x="160" y="72" width="42.96296296296296" height="7.333333333333333" fill="#3fb950" rx="2" opacity="0.85"/>
<text x="152" y="87" text-anchor="end" class="lbl">github-growth</text>
<text x="595.6296296296296" y="87" class="lbl">20</text>
<rect x="160" y="100" width="322.22222222222223" height="22" fill="#58a6ff" rx="3"/>
<rect x="160" y="100" width="150.37037037037035" height="7.333333333333333" fill="#3fb950" rx="2" opacity="0.85"/>
<text x="152" y="115" text-anchor="end" class="lbl">seagrass-lang</text>
<text x="488.22222222222223" y="115" class="lbl">15</text>
<rect x="160" y="128" width="300.7407407407407" height="22" fill="#58a6ff" rx="3"/>
<rect x="160" y="128" width="42.96296296296296" height="7.333333333333333" fill="#3fb950" rx="2" opacity="0.85"/>
<text x="152" y="143" text-anchor="end" class="lbl">bulk</text>
<text x="466.7407407407407" y="143" class="lbl">14</text>
<rect x="160" y="156" width="300.7407407407407" height="22" fill="#58a6ff" rx="3"/>
<rect x="160" y="156" width="21.48148148148148" height="7.333333333333333" fill="#3fb950" rx="2" opacity="0.85"/>
<text x="152" y="171" text-anchor="end" class="lbl">mush-packages</text>
<text x="466.7407407407407" y="171" class="lbl">14</text>
<rect x="160" y="184" width="257.77777777777777" height="22" fill="#58a6ff" rx="3"/>
<rect x="160" y="184" width="85.92592592592592" height="7.333333333333333" fill="#3fb950" rx="2" opacity="0.85"/>
<text x="152" y="199" text-anchor="end" class="lbl">pbm</text>
<text x="423.77777777777777" y="199" class="lbl">12</text>
<rect x="160" y="212" width="171.85185185185185" height="22" fill="#58a6ff" rx="3"/>
<rect x="160" y="212" width="64.44444444444444" height="7.333333333333333" fill="#3fb950" rx="2" opacity="0.85"/>
<text x="152" y="227" text-anchor="end" class="lbl">define</text>
<text x="337.85185185185185" y="227" class="lbl">8</text>
<rect x="160" y="240" width="150.37037037037035" height="22" fill="#58a6ff" rx="3"/>
<rect x="160" y="240" width="42.96296296296296" height="7.333333333333333" fill="#3fb950" rx="2" opacity="0.85"/>
<text x="152" y="255" text-anchor="end" class="lbl">github-traffic</text>
<text x="316.3703703703703" y="255" class="lbl">7</text>
<rect x="160" y="268" width="128.88888888888889" height="22" fill="#58a6ff" rx="3"/>
<rect x="160" y="268" width="21.48148148148148" height="7.333333333333333" fill="#3fb950" rx="2" opacity="0.85"/>
<text x="152" y="283" text-anchor="end" class="lbl">acc</text>
<text x="294.8888888888889" y="283" class="lbl">6</text>
<rect x="160" y="296" width="107.4074074074074" height="22" fill="#58a6ff" rx="3"/>
<rect x="160" y="296" width="107.4074074074074" height="7.333333333333333" fill="#3fb950" rx="2" opacity="0.85"/>
<text x="152" y="311" text-anchor="end" class="lbl">matrix-theme</text>
<text x="273.4074074074074" y="311" class="lbl">5</text>
<rect x="160" y="340" width="12" height="8" fill="#58a6ff"   rx="1"/>
<text x="176" y="348" class="lbl">Views</text>
<rect x="226" y="340" width="12" height="8" fill="#3fb950" rx="1" opacity="0.85"/>
<text x="242" y="348" class="lbl">Unique visitors</text>
</svg>