<svg xmlns="http://www.w3.org/2000/svg" width="800" height="360" viewBox="0 0 800 360">
<style>
  .lbl { font: 11px sans-serif; fill: #8b949e; }
  .ttl { font: bold 13px sans-serif; fill: #e6edf3; }
  .grid { stroke: #21262d; stroke-width: 1; }
  .axis { stroke: #30363d; stroke-width: 1; fill: none; }
  .lv  { fill: none; stroke: #58a6ff;   stroke-width: 2; stroke-linejoin: round; stroke-linecap: round; }
  .lu  { fill: none; stroke: #3fb950; stroke-width: 2; stroke-linejoin: round; stroke-linecap: round; stroke-dasharray: 4 2; }
</style>
<rect width="800" height="360" rx="8" ry="8" fill="#161b22" stroke="#30363d" stroke-width="1"/>

<text x="400" y="26" text-anchor="middle" class="ttl">Top 10 Repos by Total Views</text>

<rect x="160" y="44" width="0" height="22" fill="#58a6ff" rx="3"/>
<rect x="160" y="44" width="0" height="7.333333333333333" fill="#3fb950" rx="2" opacity="0.85"/>
<text x="152" y="59" text-anchor="end" class="lbl">acc</text>
<text x="166" y="59" class="lbl">0</text>
<rect x="160" y="72" width="0" height="22" fill="#58a6ff" rx="3"/>
<rect x="160" y="72" width="0" height="7.333333333333333" fill="#3fb950" rx="2" opacity="0.85"/>
<text x="152" y="87" text-anchor="end" class="lbl">acurl</text>
<text x="166" y="87" class="lbl">0</text>
<rect x="160" y="100" width="0" height="22" fill="#58a6ff" rx="3"/>
<rect x="160" y="100" width="0" height="7.333333333333333" fill="#3fb950" rx="2" opacity="0.85"/>
<text x="152" y="115" text-anchor="end" class="lbl">admin.lab.tp.it</text>
<text x="166" y="115" class="lbl">0</text>
<rect x="160" y="128" width="0" height="22" fill="#58a6ff" rx="3"/>
<rect x="160" y="128" width="0" height="7.333333333333333" fill="#3fb950" rx="2" opacity="0.85"/>
<text x="152" y="143" text-anchor="end" class="lbl">aeterna</text>
<text x="166" y="143" class="lbl">0</text>
<rect x="160" y="156" width="0" height="22" fill="#58a6ff" rx="3"/>
<rect x="160" y="156" width="0" height="7.333333333333333" fill="#3fb950" rx="2" opacity="0.85"/>
<text x="152" y="171" text-anchor="end" class="lbl">age-of-developers</text>
<text x="166" y="171" class="lbl">0</text>
<rect x="160" y="184" width="0" height="22" fill="#58a6ff" rx="3"/>
<rect x="160" y="184" width="0" height="7.333333333333333" fill="#3fb950" rx="2" opacity="0.85"/>
<text x="152" y="199" text-anchor="end" class="lbl">agent0</text>
<text x="166" y="199" class="lbl">0</text>
<rect x="160" y="212" width="0" height="22" fill="#58a6ff" rx="3"/>
<rect x="160" y="212" width="0" height="7.333333333333333" fill="#3fb950" rx="2" opacity="0.85"/>
<text x="152" y="227" text-anchor="end" class="lbl">agentcontainer</text>
<text x="166" y="227" class="lbl">0</text>
<rect x="160" y="240" width="0" height="22" fill="#58a6ff" rx="3"/>
<rect x="160" y="240" width="0" height="7.333333333333333" fill="#3fb950" rx="2" opacity="0.85"/>
<text x="152" y="255" text-anchor="end" class="lbl">alphabetor</text>
<text x="166" y="255" class="lbl">0</text>
<rect x="160" y="268" width="0" height="22" fill="#58a6ff" rx="3"/>
<rect x="160" y="268" width="0" height="7.333333333333333" fill="#3fb950" rx="2" opacity="0.85"/>
<text x="152" y="283" text-anchor="end" class="lbl">anthropic-quickstarts</text>
<text x="166" y="283" class="lbl">0</text>
<rect x="160" y="296" width="0" height="22" fill="#58a6ff" rx="3"/>
<rect x="160" y="296" width="0" height="7.333333333333333" fill="#3fb950" rx="2" opacity="0.85"/>
<text x="152" y="311" text-anchor="end" class="lbl">apexdomain</text>
<text x="166" y="311" class="lbl">0</text>
<rect x="160" y="340" width="12" height="8" fill="#58a6ff"   rx="1"/>
<text x="176" y="348" class="lbl">Views</text>
<rect x="226" y="340" width="12" height="8" fill="#3fb950" rx="1" opacity="0.85"/>
<text x="242" y="348" class="lbl">Unique visitors</text>
</svg>